<?xml version="1.0" encoding="UTF-8" standalone="no"?>
<svg
   xmlns:dc="http://purl.org/dc/elements/1.1/"
   xmlns:cc="http://creativecommons.org/ns#"
   xmlns:rdf="http://www.w3.org/1999/02/22-rdf-syntax-ns#"
   xmlns:svg="http://www.w3.org/2000/svg"
   xmlns="http://www.w3.org/2000/svg"
   xmlns:sodipodi="http://sodipodi.sourceforge.net/DTD/sodipodi-0.dtd"
   xmlns:inkscape="http://www.inkscape.org/namespaces/inkscape"
   version="1.1"
   id="svg10"
   xml:space="preserve"
   width="808.59747"
   height="461.44064"
   viewBox="0 0 808.59747 461.44064"
   sodipodi:docname="optimal-logo-white.svg"
   inkscape:version="1.0 (4035a4fb49, 2020-05-01)"><metadata
     id="metadata16"><rdf:RDF><cc:Work
         rdf:about=""><dc:format>image/svg+xml</dc:format><dc:type
           rdf:resource="http://purl.org/dc/dcmitype/StillImage" /><dc:title /></cc:Work></rdf:RDF></metadata><defs
     id="defs14"><inkscape:path-effect
       message="Use fill-rule evenodd on &lt;b&gt;fill and stroke&lt;/b&gt; dialog if no flatten result after convert clip to paths."
       hide_clip="false"
       flatten="false"
       inverse="true"
       lpeversion="1"
       is_visible="true"
       id="path-effect364"
       effect="powerclip" /><clipPath
       clipPathUnits="userSpaceOnUse"
       id="clipPath26"><path
         d="M 0,612 H 792 V 0 H 0 Z"
         id="path24" /></clipPath><clipPath
       id="clipPath360"
       clipPathUnits="userSpaceOnUse"><path
         id="path362"
         style="display:none;fill:#ffffff;fill-opacity:1;fill-rule:nonzero;stroke:none;stroke-width:0.999998"
         d="M 367.37971,95.764517 V 77.601519 l -8.817,2.095005 c -0.551,0.130995 -1.102,0.660001 -1.102,1.018996 -0.552,0.959002 0,1.708005 1.102,2.804002 z" /><path
         d="m 317.14816,30.873521 h 69.51501 v 85.368999 h -69.51501 z m 50.23155,64.890996 V 77.601519 l -8.817,2.095005 c -0.551,0.130995 -1.102,0.660001 -1.102,1.018996 -0.552,0.959002 0,1.708005 1.102,2.804002 z"
         class="powerclip"
         style="fill:#ffffff;fill-opacity:1;fill-rule:nonzero;stroke:none;stroke-width:0.999998"
         id="lpe_path-effect364" /></clipPath></defs><sodipodi:namedview
     inkscape:document-rotation="0"
     pagecolor="#ffffff"
     bordercolor="#666666"
     borderopacity="1"
     objecttolerance="10"
     gridtolerance="10"
     guidetolerance="10"
     inkscape:pageopacity="0"
     inkscape:pageshadow="2"
     inkscape:window-width="1920"
     inkscape:window-height="1018"
     id="namedview12"
     showgrid="false"
     inkscape:zoom="0.70710678"
     inkscape:cx="526.21089"
     inkscape:cy="154.824"
     inkscape:window-x="-6"
     inkscape:window-y="-6"
     inkscape:window-maximized="1"
     inkscape:current-layer="g18" /><g
     id="g18"
     inkscape:groupmode="layer"
     inkscape:label="optimalfitness logo"
     transform="matrix(1.3333333,0,0,-1.3333333,-111.20754,689.07736)"><g
       id="g20"
       transform="translate(-19.490445,10.135035)"
       style="fill:#ffffff"><g
         id="g22"
         clip-path="url(#clipPath26)"
         style="fill:#ffffff"><g
           id="g28"
           transform="translate(421.137,326.8269)"
           style="fill:#ffffff"><path
             d="m 0,0 c 0.551,-10.327 1.102,-19.943 1.652,-26.671 0.552,-6.723 1.103,-10.553 1.103,-13.798 0.551,-3.252 1.102,-5.919 1.653,-8.575 0.551,-2.657 1.654,-5.296 2.204,-7.225 0.551,-1.923 1.654,-3.13 2.204,-4.166 0.551,-1.042 1.103,-1.912 2.205,-2.667 0.551,-0.761 1.102,-1.4 2.205,-1.901 0.55,-0.502 1.1,-0.872 1.652,-1.136 2.755,-1.079 4.96,-1.008 7.164,1.543 0.551,0.496 0.551,1.092 1.103,1.841 0.55,0.744 1.101,1.642 1.101,2.563 1.103,3.278 2.204,6.54 2.756,8.739 1.102,2.199 1.102,3.334 1.653,4.282 0.55,0.942 1.102,1.709 1.102,2.453 3.306,6.298 7.164,12.409 9.919,16.675 2.756,4.27 5.511,6.695 7.164,8.717 4.409,4.117 8.266,6.575 12.675,8.459 1.653,0.953 3.857,1.73 6.061,2.37 2.204,0.639 4.408,1.141 6.613,1.548 2.755,0.403 4.959,0.711 7.715,0.899 2.204,0.182 4.959,0.247 7.715,0.182 0.551,-0.028 1.653,0.027 2.204,0.132 1.103,0.111 1.654,0.281 2.204,0.485 0.551,0.204 0.551,0.446 1.103,0.732 0.551,0.282 0.551,0.601 1.101,0.976 0,0.369 0.552,0.793 0.552,1.3 0.551,0.508 0.551,1.097 0.551,1.825 0.551,0.721 0.551,1.586 0.551,2.44 v 2.42 c 0,0.722 -0.551,1.311 -0.551,1.829 0,0.518 -0.551,0.959 -0.551,1.351 0,0.391 -0.552,0.732 -0.552,1.036 -1.101,1.234 -2.204,1.636 -2.754,2.016 -0.551,0.155 -1.103,0.276 -1.654,0.364 -0.551,0.094 -1.102,0.143 -2.204,0.188 -1.102,0.044 -2.756,0.083 -3.857,0.131 -1.103,0.05 -1.654,0.111 -2.756,0.171 -0.551,0.061 -1.102,0.122 -1.653,0.194 -4.409,0.495 -8.817,1.334 -12.124,2.253 -3.306,0.921 -5.51,1.929 -7.714,2.992 -1.654,1.064 -3.307,2.194 -4.96,3.472 -1.102,0.562 -1.654,1.185 -2.204,1.841 -0.551,0.65 -1.102,1.345 -1.654,2.083 0,0.738 -0.551,1.526 -1.101,2.397 0,0.865 -0.552,1.807 -0.552,2.887 0,1.075 -0.551,2.288 0,3.775 0,1.483 0,3.241 0.552,4.971 0,1.096 0.55,2.304 1.653,3.406 0.551,0.143 0.551,0.276 1.102,0.396 0,0.121 0.55,0.226 0.55,0.326 0.552,0.099 1.103,0.187 1.654,0.225 0.551,0.045 1.653,0.033 2.756,0 1.101,-0.038 2.754,-0.093 4.408,-0.176 0.551,0.06 1.653,0.088 2.204,0.099 1.102,0.006 2.204,-0.011 3.857,-0.121 1.654,-0.115 3.858,-0.319 8.267,-0.931 4.408,-0.612 11.02,-1.62 18.736,-3.026 7.715,-1.405 15.981,-3.207 29.757,-7.059 13.777,-3.852 33.064,-9.764 51.801,-16.14 2.204,-0.673 3.857,-1.142 6.061,-1.367 1.654,-0.221 3.307,-0.204 5.511,0.027 1.653,0.226 3.306,0.656 4.959,1.285 1.653,0.407 2.756,0.875 3.307,1.229 1.102,0.358 1.102,0.594 1.653,0.815 1.653,1.581 1.653,2.843 2.204,4.469 -0.551,1.125 -0.551,2.237 -1.653,3.212 0,0.287 -0.551,0.601 -1.102,1.075 -0.552,0.474 -1.653,1.108 -2.756,1.747 -1.653,0.639 -2.754,1.289 -3.857,1.829 -1.102,0.535 -1.653,0.959 -2.755,1.34 -0.552,0.38 -1.102,0.716 -5.511,2.562 -3.857,1.841 -11.572,5.197 -19.287,8.586 -8.266,3.389 -16.532,6.817 -25.9,10.349 -8.818,3.532 -18.736,7.163 -29.758,10.977 C 95.885,67.34 83.21,71.325 73.291,73.876 63.372,76.427 56.208,77.541 49.596,78.251 42.982,78.957 37.472,79.26 33.063,79.32 28.655,79.387 26.45,79.21 24.246,78.929 22.042,78.648 19.838,78.262 18.735,77.816 17.083,77.37 15.98,76.857 14.878,76.284 13.776,75.711 12.674,75.072 12.123,74.344 11.021,73.617 10.47,72.801 9.367,71.837 8.816,70.878 7.715,69.776 7.163,68.42 6.612,67.07 5.51,65.467 4.959,63.323 4.408,61.179 3.857,58.501 2.755,55.459 2.204,52.417 1.652,49.018 1.102,45.11 1.102,41.203 0.551,36.789 0,29.069 Z m 33.614,83.365 c 5.511,-0.203 11.022,-0.656 17.083,-1.388 5.511,-0.739 11.573,-1.753 18.186,-3.197 6.612,-1.444 13.225,-3.311 22.043,-5.885 8.265,-2.573 18.184,-5.858 28.655,-9.578 9.919,-3.719 20.94,-7.869 33.064,-12.712 11.572,-4.85 24.247,-10.394 31.411,-13.645 7.163,-3.251 9.368,-4.205 10.469,-4.943 1.654,-0.738 2.756,-1.262 3.307,-1.741 0.551,-0.48 1.103,-0.91 2.204,-1.367 0.551,-0.469 1.103,-1.019 1.653,-1.631 1.654,-2.033 2.205,-4.397 2.205,-6.778 0,-0.783 -0.551,-1.538 -0.551,-2.232 -0.551,-0.694 -0.551,-1.328 -1.103,-1.896 -0.551,-0.562 -1.101,-1.058 -1.653,-1.488 0,-0.429 -1.102,-0.793 -1.652,-1.074 -2.756,-1.284 -5.511,-2.359 -7.716,-2.998 -2.204,-0.639 -3.858,-0.848 -5.51,-0.914 -1.653,-0.072 -2.756,0.005 -4.409,0.209 -1.102,0.204 -2.755,0.535 -3.858,0.992 -17.083,5.676 -33.615,10.988 -46.289,14.697 -12.674,3.714 -22.043,5.824 -29.757,7.522 -7.715,1.703 -14.879,2.986 -19.288,3.758 -4.408,0.778 -6.613,1.036 -8.817,1.217 -3.857,0.359 -7.715,0.453 -11.572,0.276 -1.102,0.061 -1.654,0.122 -2.755,0.182 -0.552,0.061 -1.653,0.116 -2.205,0.122 0,0.005 -0.551,-0.044 -0.551,-0.1 -1.102,-0.148 -1.653,-0.341 -2.204,-1.013 0,-0.453 -0.551,-0.894 -0.551,-1.395 0,-1.14 -0.552,-2.303 -0.552,-3.289 v -2.497 c 0,-0.711 0,-1.339 0.552,-1.912 0.551,-1.835 1.102,-3.494 3.306,-5.263 1.102,-1.129 2.756,-2.132 4.409,-3.042 1.653,-0.909 3.307,-1.73 5.511,-2.43 2.204,-0.7 4.959,-1.273 7.163,-1.648 1.102,-0.127 1.653,-0.242 2.756,-0.369 1.102,-0.127 2.204,-0.265 4.408,-0.452 1.653,-0.192 4.96,-0.435 6.613,-0.634 2.204,-0.203 3.307,-0.363 4.408,-0.562 1.103,-0.203 1.654,-0.441 2.204,-0.7 0.552,-0.258 1.103,-0.54 1.654,-0.843 0,-0.302 0.551,-0.633 1.102,-0.997 0,-0.369 0.551,-0.772 0.551,-1.234 0.551,-0.469 0.551,-0.997 1.103,-1.631 0,-0.639 0,-1.384 0.55,-2.353 V 3.125 -0.43 c 0,-1.036 -0.55,-1.829 -0.55,-2.502 0,-0.671 -0.552,-1.222 -0.552,-1.707 0,-0.48 -0.551,-0.899 -0.551,-1.279 -0.551,-0.374 -0.551,-0.711 -1.102,-1.02 0,-0.314 -0.551,-0.594 -1.102,-0.859 -0.551,-0.265 -0.551,-0.507 -1.103,-0.739 -0.55,-0.225 -1.653,-0.44 -2.204,-0.628 -1.101,-0.188 -2.204,-0.347 -2.755,-0.446 -3.306,-0.171 -6.613,-0.369 -9.368,-0.529 -2.204,-0.166 -4.409,-0.292 -5.51,-0.435 -1.103,-0.138 -2.205,-0.287 -3.307,-0.474 -2.204,-0.43 -4.96,-1.07 -7.164,-1.896 -2.204,-0.827 -4.408,-1.847 -6.612,-3.136 -2.205,-1.295 -3.858,-2.855 -6.614,-4.844 -2.204,-1.984 -4.408,-4.398 -7.715,-8.723 -2.754,-4.32 -6.612,-10.553 -9.919,-16.989 -0.55,-0.711 -0.55,-1.439 -1.102,-2.331 0,-0.893 -0.551,-1.956 -1.652,-4.061 -0.552,-2.099 -1.654,-5.247 -2.205,-8.404 -0.551,-1.361 -1.102,-2.667 -1.654,-3.775 -1.101,-1.113 -1.652,-2.034 -2.755,-2.772 -0.55,-0.743 -1.653,-1.306 -2.204,-1.708 -3.306,-1.273 -6.613,-0.937 -9.368,0.909 -1.102,0.656 -2.204,1.531 -3.307,2.425 -1.101,0.887 -1.653,1.791 -2.754,2.788 -0.552,1.003 -1.103,2.1 -1.654,3.351 -1.102,1.256 -1.653,2.662 -2.204,4.347 -0.552,1.693 -1.102,3.659 -1.102,5.649 -2.205,13.573 -3.858,27.256 -4.409,39.836 -1.102,12.581 -1.102,24.066 -0.551,34.85 0.551,10.779 1.653,20.864 2.755,27.361 0.551,6.502 1.654,9.412 2.205,11.825 0.55,2.413 1.653,4.331 2.204,5.974 1.102,1.642 1.653,3.009 2.756,4.215 0.55,1.207 1.653,2.249 2.754,3.185 1.103,0.937 2.205,1.764 3.858,2.502 1.102,0.744 2.756,1.4 4.409,1.973 2.204,0.579 4.408,1.069 7.163,1.4 2.756,0.336 6.063,0.512 9.368,0.462"
             style="fill:#ffffff;fill-opacity:1;fill-rule:nonzero;stroke:none"
             id="path30" /></g><g
           id="g32"
           transform="translate(405.7063,342.2957)"
           style="fill:#ffffff"><path
             d="m 0,0 c 0,9.208 -0.551,17.904 -0.551,23.921 -0.551,6.018 -1.101,9.363 -1.101,12.322 -0.552,2.96 -1.103,5.539 -1.654,8.018 -0.551,2.48 -1.102,4.855 -2.205,6.795 -0.551,1.94 -1.652,3.444 -2.204,4.728 -1.101,1.284 -2.204,2.342 -3.306,3.268 -1.102,0.926 -2.204,1.714 -3.306,2.397 -1.653,0.683 -3.307,1.267 -5.511,1.703 -1.653,0.435 -4.409,0.733 -8.266,0.865 -4.409,0.138 -10.47,0.121 -14.879,-0.072 -4.408,-0.198 -8.266,-0.562 -11.021,-0.997 -3.307,-0.435 -6.062,-0.937 -8.817,-1.565 -22.043,-5.18 -44.085,-11.396 -64.475,-18.229 -20.389,-6.834 -39.125,-14.289 -56.76,-22.258 -18.185,-7.968 -34.716,-16.449 -50.697,-25.746 -1.102,-0.672 -2.756,-1.4 -3.307,-2.011 -1.102,-0.612 -1.653,-1.108 -2.204,-1.543 -0.551,-0.441 -0.551,-0.821 -1.102,-1.168 -1.654,-2.138 -1.654,-3.935 0,-5.698 0.551,-0.336 0.551,-0.706 1.102,-1.13 0.551,-0.419 1.102,-0.898 2.204,-1.477 0.551,-0.579 1.653,-1.262 3.307,-1.895 15.429,-8.735 31.961,-16.874 47.391,-23.978 15.981,-7.097 30.86,-13.153 45.188,-18.416 14.878,-5.257 28.655,-9.72 41.881,-13.314 12.674,-3.593 24.247,-6.32 33.064,-7.924 8.816,-1.609 13.776,-2.099 18.736,-2.37 4.959,-0.269 9.368,-0.313 13.225,-0.099 3.858,0.215 7.164,0.695 9.368,1.422 2.755,0.733 4.96,1.708 7.164,2.888 1.653,1.179 3.858,2.563 4.96,4.237 1.653,1.67 3.306,3.637 4.408,6.122 1.102,2.486 2.205,5.495 3.306,9.523 1.103,4.028 2.205,9.087 2.756,14.764 1.102,5.675 2.204,11.974 2.204,19.981 C -0.551,-18.924 0,-9.203 0,0 m 3.307,-0.336 c 0.55,-9.44 0,-18.521 -0.551,-25.967 -0.551,-7.445 -1.103,-13.253 -1.653,-18.488 -0.551,-5.235 -1.654,-9.897 -2.755,-14.195 -1.103,-4.299 -2.205,-8.238 -3.307,-11.424 -1.653,-3.19 -2.756,-5.627 -4.409,-7.687 -1.653,-2.061 -3.306,-3.747 -5.51,-5.192 -1.654,-1.443 -3.858,-2.644 -6.062,-3.653 -2.205,-1.009 -4.96,-1.818 -8.817,-2.331 -3.306,-0.513 -7.164,-0.727 -11.573,-0.655 -4.408,0.066 -8.816,0.424 -14.327,1.013 -4.96,0.59 -11.022,1.422 -18.737,3.048 -7.714,1.625 -17.633,4.039 -29.757,7.555 -12.123,3.511 -27.002,8.117 -41.33,13.457 -14.879,5.34 -29.757,11.412 -44.636,18.378 -15.43,6.971 -31.411,14.834 -46.29,23.266 -2.204,0.981 -3.857,2.083 -4.959,2.899 -1.654,0.821 -1.654,1.35 -2.204,1.835 -1.654,2.094 -2.205,3.88 -2.205,5.857 0,1.543 0,3.12 1.103,4.619 0,0.468 0.55,0.936 0.55,1.443 0.552,0.501 1.102,1.053 2.205,1.891 1.102,0.842 2.755,1.972 13.225,7.356 9.92,5.379 28.656,15.005 47.392,23.586 19.287,8.579 39.126,16.119 59.515,22.714 20.389,6.602 41.881,12.261 62.822,16.852 7.714,1.62 15.429,2.453 23.144,2.469 3.858,0.017 7.715,-0.177 11.022,-0.496 2.755,-0.314 5.51,-0.766 7.714,-1.328 1.653,-0.562 3.307,-1.234 4.96,-2.001 1.653,-0.765 2.755,-1.62 3.857,-2.606 1.103,-0.991 2.204,-2.116 3.307,-3.471 0.551,-1.351 1.653,-2.927 2.755,-4.993 C -1.652,51.354 -0.551,48.808 0,46.322 0.552,43.837 1.103,41.407 1.653,38.48 2.205,35.55 2.756,32.122 2.756,25.509 3.307,18.896 3.307,9.099 3.307,-0.336"
             style="fill:#ffffff;fill-opacity:1;fill-rule:nonzero;stroke:none"
             id="path34" /></g><g
           id="g36"
           transform="translate(137.3376,329.946)"
           style="fill:#ffffff"><path
             d="m 0,0 c 2.205,1.483 4.409,2.959 6.062,3.929 1.102,0.975 1.653,1.449 2.204,1.846 1.102,0.392 1.102,0.7 7.164,4.464 6.062,3.769 17.634,10.988 26.451,16.383 8.817,5.4 14.328,8.977 17.634,11.203 3.858,2.221 4.96,3.086 5.511,3.951 3.857,3.384 4.409,6.823 3.307,10.112 -0.552,0.843 -1.103,1.697 -1.103,2.48 -0.551,0.777 -1.102,1.483 -1.653,2.072 -2.204,1.923 -3.857,2.64 -6.062,2.866 -0.551,0.082 -1.102,0.082 -2.204,-0.017 C 56.76,59.19 55.658,58.992 55.107,58.645 54.004,58.297 52.902,57.796 45.739,53.47 38.575,49.149 24.798,41.005 14.879,34.574 4.409,28.148 -2.204,23.431 -8.266,19.144 -14.878,14.857 -19.838,10.994 -23.145,8.635 -25.9,6.277 -27.002,5.422 -28.104,4.745 c -0.551,-0.683 -1.102,-1.191 -1.102,-1.626 -1.102,-1.085 -1.653,-1.923 -1.653,-2.816 0,-0.876 0,-1.626 0.551,-2.447 0,-0.325 0.551,-0.677 1.102,-1.113 0,-0.43 0.551,-0.936 1.102,-1.615 1.102,-0.677 2.204,-1.531 4.959,-3.851 3.307,-2.32 8.267,-6.111 14.328,-10.333 6.062,-4.227 13.226,-8.889 23.696,-15.474 10.47,-6.585 24.247,-15.094 31.411,-19.491 7.714,-4.403 8.266,-4.7 8.266,-4.927 1.102,-0.429 1.653,-0.65 2.204,-0.87 1.102,-0.314 1.653,-0.523 2.755,-0.612 2.205,-0.203 4.409,0.292 7.164,2.326 2.204,2.011 3.858,5.075 3.858,7.742 0,1.714 -0.552,3.357 -1.654,5.009 -0.55,0.821 -1.102,1.643 -1.653,2.37 -0.551,0.286 -0.551,0.557 -1.102,0.865 -0.551,0.309 -0.551,0.651 -1.653,1.245 -1.102,0.596 -2.204,1.45 -8.266,4.96 -5.511,3.51 -15.981,9.682 -23.696,14.587 -7.715,4.91 -13.225,8.553 -18.736,11.886 C 8.817,-6.1 4.409,-3.075 0,0 m 7.715,-0.463 c 2.756,-2.028 5.511,-4.028 9.368,-6.287 3.307,-2.254 7.164,-4.778 13.777,-9.115 7.164,-4.343 17.083,-10.504 22.594,-13.969 6.061,-3.472 7.163,-4.244 8.266,-4.856 1.102,-0.61 1.653,-1.058 2.204,-1.405 0.551,-0.353 1.102,-0.606 1.653,-0.864 1.102,-0.932 2.756,-2.018 3.858,-3.136 4.408,-4.569 5.51,-9.286 4.408,-13.876 -0.551,-1.18 -1.102,-2.37 -1.653,-3.576 -1.102,-1.207 -2.205,-2.431 -3.307,-3.407 -1.102,-0.98 -2.204,-1.713 -3.306,-2.225 -1.653,-0.519 -2.755,-0.817 -4.409,-0.865 -1.653,-0.056 -3.306,0.131 -4.959,0.644 -1.653,0.513 -3.857,1.345 -9.368,4.629 -5.511,3.29 -15.43,9.026 -23.145,14.024 -8.266,4.994 -14.879,9.247 -20.941,13.193 -5.51,3.946 -11.021,7.583 -14.878,10.366 -4.409,2.782 -6.613,4.711 -8.817,6.227 -2.205,1.515 -3.307,2.612 -4.96,3.598 -1.102,0.987 -2.204,1.857 -3.306,2.744 -2.205,1.587 -3.857,3.5 -4.409,5.208 -1.102,2.414 -1.102,4.635 0,6.888 0,0.777 0.552,1.571 1.654,2.398 0.55,0.82 1.102,1.669 4.408,4.066 3.306,2.397 8.266,6.337 14.328,10.724 6.613,4.386 13.225,9.219 24.246,16.064 11.022,6.849 25.35,15.71 33.616,20.422 7.715,4.717 9.367,5.285 10.47,5.632 1.653,0.347 2.755,0.479 4.408,0.375 1.102,-0.099 2.756,-0.436 4.409,-0.992 1.102,-0.562 2.204,-1.351 3.306,-2.32 1.103,-0.97 2.205,-2.133 3.307,-3.428 2.204,-3.874 2.755,-8.359 0.551,-12.664 C 70.537,42.416 69.985,41.131 68.883,39.947 67.781,38.756 66.679,37.666 65.026,36.772 62.271,34.85 58.964,32.943 52.902,29.212 46.841,25.481 38.024,19.927 31.411,15.904 25.349,11.887 20.941,9.401 17.083,6.905 14.879,5.687 13.226,4.37 11.573,3.406 10.471,2.441 9.368,1.83 8.817,1.246 8.266,0.667 8.266,0.116 7.715,-0.463"
             style="fill:#ffffff;fill-opacity:1;fill-rule:nonzero;stroke:none"
             id="path38" /></g><g
           id="g40"
           transform="translate(674.6262,329.825)"
           style="fill:#ffffff"><path
             d="m 0,0 c -4.959,-3.527 -9.919,-6.993 -15.98,-10.735 -5.511,-3.742 -11.573,-7.759 -19.839,-12.625 -7.715,-4.866 -17.083,-10.575 -22.594,-13.876 -5.51,-3.295 -6.612,-4.171 -7.715,-5.048 -2.755,-2.6 -3.857,-5.146 -3.857,-7.647 0,-0.85 0,-1.721 0.551,-2.618 0,-0.905 0.551,-1.835 1.102,-2.673 0.552,-0.832 1.103,-1.57 1.653,-2.177 2.204,-2.066 3.858,-2.65 6.062,-2.81 0.552,-0.05 1.102,-0.017 2.204,0.137 1.102,0.149 1.653,0.413 2.756,0.843 1.102,0.437 2.755,1.031 9.919,5.434 7.164,4.409 20.94,12.625 30.859,18.99 10.471,6.365 17.083,10.878 22.594,14.961 6.061,4.09 11.021,7.748 14.327,10.173 3.307,2.43 4.96,3.62 5.512,4.502 1.101,0.881 1.653,1.455 2.204,1.929 1.102,1.168 1.102,2.016 1.653,2.953 0,0.905 -0.551,1.654 -0.551,2.496 -0.551,0.337 -0.551,0.711 -1.102,1.18 -0.551,0.463 -1.103,1.019 -1.654,1.868 -1.101,0.848 -2.754,1.984 -5.51,4.331 -3.307,2.349 -8.266,5.913 -13.778,9.875 -6.06,3.963 -12.122,8.332 -21.491,14.279 -9.367,5.946 -22.042,13.479 -28.655,17.672 -7.164,4.194 -8.817,5.059 -9.919,5.699 -1.653,0.645 -2.755,1.068 -3.857,1.366 -0.551,0.303 -1.654,0.485 -2.205,0.589 -1.102,0.105 -1.653,0.133 -2.205,0.105 -2.204,-0.12 -3.857,-0.782 -6.06,-2.959 -1.103,-1.471 -2.205,-3.51 -2.756,-5.312 0,-2.001 0,-3.857 1.103,-5.66 0.55,-0.495 0.55,-1.019 1.101,-1.581 0.552,-0.562 1.102,-1.163 1.653,-1.835 1.102,-0.673 1.654,-1.411 2.755,-2.26 1.103,-0.848 2.756,-1.802 8.267,-5.274 6.061,-3.471 15.98,-9.467 23.695,-14.173 7.164,-4.711 12.675,-8.139 17.083,-11.264 C -7.715,5.726 -3.857,2.893 0,0 m -6.612,0.049 c -2.756,2.001 -5.511,3.968 -8.818,6.183 -3.306,2.216 -7.164,4.679 -14.327,9.154 -7.164,4.474 -17.635,10.96 -23.696,14.587 -6.062,3.625 -7.164,4.397 -8.266,4.953 -1.102,0.552 -1.653,0.893 -1.653,1.174 -0.551,0.287 -1.103,0.518 -1.103,0.755 -1.653,0.992 -3.305,2.188 -3.857,3.444 -3.307,3.924 -4.408,8.068 -3.307,12.162 0.552,1.4 1.103,2.8 1.654,4.089 1.102,1.295 2.205,2.48 3.306,3.45 1.103,0.97 2.204,1.719 3.307,2.259 1.101,0.54 2.755,0.871 3.857,0.987 1.654,0.11 2.755,0.005 4.409,-0.342 1.653,-0.347 3.306,-0.931 4.409,-1.714 1.101,-0.711 2.755,-1.433 4.408,-2.281 1.101,-0.844 2.755,-1.813 6.061,-3.714 3.306,-1.907 7.715,-4.756 15.43,-9.374 C -17.635,41.203 -7.715,34.816 0,29.917 c 7.715,-4.899 12.123,-8.31 16.532,-11.39 4.408,-3.075 8.266,-5.819 10.47,-7.649 2.205,-1.824 3.307,-2.728 4.409,-3.549 0.551,-0.815 1.102,-1.537 1.653,-2.21 1.102,-1.824 1.654,-3.45 1.654,-5.086 0,-1.758 -0.552,-3.306 -1.654,-4.998 -0.551,-0.65 -1.102,-1.35 -1.653,-2.127 -1.102,-0.777 -1.653,-1.637 -4.96,-4.139 -3.305,-2.507 -9.368,-6.657 -15.981,-11.236 -6.061,-4.585 -13.776,-9.6 -24.246,-16.24 -10.471,-6.64 -24.247,-14.901 -31.962,-19.353 -7.164,-4.453 -8.817,-5.098 -10.47,-5.494 -1.653,-0.398 -3.307,-0.54 -4.409,-0.452 -1.654,0.093 -3.306,0.419 -4.408,0.969 -1.654,0.551 -2.755,1.323 -3.858,2.293 -1.102,0.975 -2.204,2.149 -2.756,3.439 -2.204,3.945 -2.755,8.359 -1.101,12.625 1.101,1.388 1.653,2.744 2.755,4.022 1.102,1.279 2.756,2.475 4.409,3.455 4.959,3.097 9.919,6.183 18.184,11.578 8.818,5.396 21.492,13.094 27.554,17.056 6.612,3.962 6.612,4.182 7.163,4.464 0.552,0.28 1.103,0.622 2.205,1.322 0.551,0.705 2.204,1.763 3.858,2.832"
             style="fill:#ffffff;fill-opacity:1;fill-rule:nonzero;stroke:none"
             id="path42" /></g><g
           id="g44"
           transform="translate(609.6008,351.3274)"
           style="fill:#ffffff"><path
             d="m 0,0 c -1.103,0.601 -1.653,0.904 -2.204,1.146 -0.551,0.248 -1.103,0.441 -7.715,3.45 -7.164,3.003 -20.39,8.828 -32.513,13.694 -11.573,4.866 -22.043,8.779 -31.962,12.228 -9.368,3.45 -18.185,6.437 -27.553,9.192 -9.368,2.755 -19.287,5.285 -27.002,6.822 -8.266,1.532 -13.777,2.083 -19.287,2.315 -4.96,0.231 -9.919,0.148 -13.226,-0.105 -3.307,-0.259 -5.511,-0.678 -7.164,-1.295 -1.653,-0.612 -2.755,-1.417 -3.857,-2.408 -1.103,-0.992 -2.204,-2.171 -3.307,-3.66 -1.102,-1.493 -1.653,-3.3 -2.204,-5.174 -0.551,-2.204 -1.103,-4.419 -1.653,-5.913 0,-1.493 0,-2.259 -0.551,-2.937 v -1.846 c -1.103,-6.811 -1.654,-13.655 -1.654,-21.376 -0.55,-7.72 -0.55,-16.322 -0.55,-27.686 0.55,-11.362 1.653,-25.481 2.204,-33.939 0.551,-8.459 1.101,-11.248 1.653,-13.502 0.551,-2.248 1.102,-3.956 1.653,-5.472 0.551,-1.515 1.102,-2.838 1.654,-4.116 0.551,-0.838 0.551,-1.653 1.101,-2.172 0.551,-0.92 1.103,-1.058 1.103,-1.35 1.101,-0.544 1.653,-0.639 2.755,-0.324 0.55,0.12 0.55,0.545 1.102,0.948 v 0.76 c 0,0.424 0.551,1.091 0.551,1.554 0,0.468 0,0.738 0.551,1.52 0,0.783 0.552,2.078 1.102,3.72 0.551,1.643 1.102,3.632 1.654,4.96 0.55,1.323 0.55,1.989 1.101,2.623 3.307,7.274 7.715,14.3 11.022,19.337 3.857,5.037 6.613,8.078 9.368,10.58 2.756,2.503 5.511,4.464 8.266,6.078 2.755,1.62 5.51,2.893 8.266,3.924 2.755,1.03 6.062,1.813 8.817,2.331 1.102,0.143 1.653,0.264 2.755,0.391 1.102,0.127 2.204,0.26 4.409,0.431 2.204,0.17 5.51,0.385 7.164,0.528 2.204,0.149 2.755,0.221 3.306,0.298 0.551,0.132 0.551,0.248 1.102,0.446 1.102,0.54 1.102,1.339 1.102,2.116 0,0.645 0,1.35 -0.55,1.985 -0.552,0.187 -0.552,0.269 -0.552,0.369 -0.551,0.054 -0.551,0.115 -1.102,0.182 -0.551,0.065 -1.102,0.138 -1.653,0.186 -4.408,0.513 -8.266,1.07 -11.022,1.477 -3.306,0.413 -4.408,0.673 -6.061,0.921 -1.103,0.242 -2.204,0.463 -3.307,0.711 -2.755,0.749 -6.061,1.851 -8.817,3.102 -2.204,1.245 -4.408,2.645 -6.062,4.177 -1.653,1.538 -2.754,3.213 -3.857,5.13 -1.102,1.918 -1.653,4.079 -2.204,6.685 -0.551,2.612 -1.103,5.665 -1.103,8.701 0,1.201 0.552,2.397 0.552,3.361 0,0.965 0,1.692 0.551,2.31 0,0.617 0.551,1.118 0.551,1.565 0,0.446 0.551,0.826 0.551,1.173 0.551,0.348 0.551,0.656 1.102,0.943 0.552,0.286 0.552,0.551 1.103,0.793 0.55,0.243 1.101,0.464 1.653,0.678 0.551,0.21 1.101,0.402 2.204,0.573 1.102,0.171 2.204,0.314 4.408,0.424 2.204,0.116 5.511,0.2 8.818,0.133 3.857,-0.071 7.714,-0.292 11.572,-0.749 4.408,-0.458 8.817,-1.153 14.328,-2.15 5.51,-1.003 11.572,-2.309 18.184,-3.945 7.165,-1.637 14.879,-3.604 26.452,-7.093 12.123,-3.488 27.553,-8.497 35.819,-11.186 8.817,-2.695 9.919,-3.07 11.572,-3.268 1.103,-0.198 1.654,-0.22 2.756,-0.171 1.652,0.105 3.306,0.48 4.408,1.174 1.102,0.347 1.654,0.777 2.755,1.267 C 2.755,-1.51 1.103,-0.606 0,0"
             style="fill:#ffffff;fill-opacity:1;fill-rule:nonzero;stroke:none"
             id="path46" /></g><g
           id="g48"
           transform="translate(186.3826,329.8801)"
           style="fill:#ffffff"><path
             d="m 0,0 c 0.551,-0.733 1.653,-1.455 2.755,-1.923 0.552,-0.474 1.102,-0.7 1.102,-0.882 0.552,-0.182 0.552,-0.32 1.102,-0.446 10.471,-5.622 20.94,-10.807 31.962,-15.562 11.022,-4.756 22.594,-9.083 34.166,-12.945 11.573,-3.863 23.145,-7.274 33.064,-9.793 9.92,-2.523 17.083,-4.16 23.145,-5.13 5.511,-0.965 8.817,-1.257 12.123,-1.422 3.307,-0.16 6.062,-0.193 8.267,-0.092 2.203,0.103 4.408,0.33 5.51,0.643 1.653,0.31 3.306,0.7 3.858,1.124 1.101,0.425 2.204,0.877 2.755,1.367 1.102,0.485 1.653,1.009 2.204,1.56 0.551,0.557 1.102,1.141 1.654,1.769 0.551,1.328 1.101,2.799 1.653,4.298 2.204,6.785 3.857,13.717 4.408,21.244 1.103,7.522 1.653,15.633 1.653,24.908 -0.55,9.269 -1.102,19.7 -2.755,30.011 -0.551,1.157 -0.551,2.292 -1.102,3.284 -0.551,0.992 -1.103,1.841 -1.653,2.579 -0.551,0.744 -1.103,1.383 -2.204,1.929 -1.103,0.551 -1.654,1.003 -2.756,1.344 -1.102,0.337 -2.756,0.562 -4.409,0.695 -1.653,0.132 -4.408,0.176 -6.613,0.132 -2.203,-0.049 -4.959,-0.182 -7.715,-0.43 -2.204,-0.248 -4.959,-0.606 -11.02,-1.785 -6.063,-1.18 -15.982,-3.174 -25.901,-5.847 C 94.783,37.957 83.211,34.607 69.434,29.576 55.106,24.544 38.575,17.838 28.104,13.457 17.083,9.076 12.674,7.031 9.919,5.56 6.612,4.094 4.959,3.202 3.857,2.38 2.205,1.554 1.102,0.799 0,0 Z m -17.083,-0.022 c 6.613,3.912 13.226,7.66 20.39,11.412 6.612,3.748 14.327,7.506 22.593,11.385 8.266,3.885 17.083,7.892 29.206,12.681 11.573,4.788 26.452,10.359 39.677,14.911 13.226,4.547 24.798,8.069 35.82,11.005 11.021,2.937 21.491,5.285 28.104,6.673 6.062,1.389 9.368,1.819 12.124,2.155 3.306,0.342 6.612,0.59 10.469,0.667 3.858,0.083 8.266,-0.006 11.573,-0.203 3.306,-0.205 4.959,-0.518 6.612,-0.988 1.653,-0.468 2.756,-1.091 3.858,-1.835 1.102,-0.743 2.204,-1.609 3.306,-2.623 0.552,-1.013 1.102,-2.182 1.654,-3.581 1.102,-1.4 1.102,-3.026 1.653,-4.69 0.551,-2.238 1.101,-4.48 1.101,-6.007 0.552,-1.521 0.552,-2.319 0.552,-3.003 V 46.13 c 1.101,-14.863 1.653,-29.775 1.653,-41.33 0,-11.561 -0.552,-19.767 -1.101,-27.08 -1.104,-7.306 -2.205,-13.721 -2.756,-18.378 -1.103,-4.651 -1.654,-7.549 -2.756,-9.936 -0.551,-2.385 -1.653,-4.254 -2.204,-5.841 -1.102,-1.586 -2.204,-2.893 -2.756,-4.028 -1.101,-1.136 -2.204,-2.1 -3.306,-2.948 -1.101,-0.849 -2.204,-1.581 -3.858,-2.21 -1.102,-0.633 -2.754,-1.162 -4.959,-1.581 -1.653,-0.425 -3.857,-0.734 -6.613,-0.844 -2.755,-0.11 -5.51,-0.027 -11.021,0.535 -5.511,0.556 -13.225,1.592 -22.043,3.118 -8.265,1.533 -17.634,3.555 -29.206,6.829 -11.573,3.273 -25.349,7.792 -38.575,12.376 -12.674,4.585 -24.247,9.248 -35.819,14.052 -11.021,4.806 -22.042,9.76 -32.512,14.924 -10.471,5.169 -20.39,10.542 -30.86,16.19 z"
             style="fill:#ffffff;fill-opacity:1;fill-rule:nonzero;stroke:none"
             id="path50" /></g><g
           id="g52"
           transform="translate(196.302,275.5393)"
           style="fill:#ffffff"><path
             d="m 0,0 c -0.551,0.364 -1.653,0.738 -2.205,1.02 -0.55,0.275 -1.102,0.457 -1.102,0.611 -0.55,0.16 -0.55,0.298 -7.714,4.491 -6.613,4.194 -20.39,12.443 -30.309,18.736 -9.919,6.288 -16.532,10.62 -22.043,14.527 -5.51,3.907 -10.47,7.389 -13.225,9.385 -2.756,1.994 -3.307,2.496 -3.858,2.893 -0.551,0.396 -0.551,0.683 -1.102,0.931 -1.102,1.471 -0.551,2.579 0.551,3.681 0,0.243 0,0.529 0.551,0.892 0.551,0.364 1.102,0.811 3.858,2.905 3.306,2.094 8.266,5.83 14.327,9.98 6.062,4.149 12.675,8.712 22.594,14.752 9.368,6.034 21.492,13.55 28.105,17.59 7.163,4.033 7.715,4.59 8.817,4.92 0.55,0.331 1.102,0.431 1.102,0.497 1.653,0.275 2.755,0.087 3.857,-1.18 1.102,-1.356 1.653,-3.185 1.102,-4.634 0,-0.507 -0.551,-0.954 -0.551,-1.477 C 2.204,100.228 2.204,99.903 1.102,99.462 0.551,99.021 0,98.47 -4.409,95.665 -9.368,92.86 -17.634,87.796 -25.349,83.161 c -7.164,-4.634 -13.777,-8.844 -19.839,-12.812 -6.061,-3.973 -12.123,-7.704 -14.878,-9.831 -3.307,-2.122 -3.858,-2.64 -4.409,-3.053 -0.551,-0.407 -1.102,-0.716 -1.102,-0.981 -1.102,-1.41 -1.102,-2.48 -0.551,-3.548 0,-0.205 0.551,-0.425 0.551,-0.684 0.551,-0.264 0.551,-0.567 1.102,-0.97 0.551,-0.397 1.102,-0.892 3.858,-2.673 2.755,-1.779 7.163,-4.838 12.123,-8.265 5.511,-3.423 11.021,-7.203 19.287,-12.19 C -21.492,23.161 -11.021,16.973 -5.511,13.54 0,10.112 1.102,9.445 1.653,8.966 2.755,8.481 2.755,8.188 3.306,7.925 3.857,7.654 3.857,7.417 3.857,7.17 5.511,5.561 5.511,3.974 4.959,2.154 4.408,1.841 4.408,1.565 4.408,1.334 3.857,0.799 3.306,0.567 2.755,0.364 2.204,0.104 1.102,-0.006 0,0"
             style="fill:#ffffff;fill-opacity:1;fill-rule:nonzero;stroke:none"
             id="path54" /></g><g
           id="g56"
           transform="translate(699.4241,329.6428)"
           style="fill:#ffffff"><path
             d="m 0,0 c -3.306,-2.628 -6.612,-5.196 -10.47,-8.079 -3.858,-2.876 -8.266,-6.072 -17.084,-11.61 -8.265,-5.544 -20.939,-13.435 -27.552,-17.844 -7.165,-4.414 -8.818,-5.345 -10.471,-6.37 -1.652,-1.02 -3.306,-2.121 -5.51,-3.401 -2.205,-1.272 -4.96,-2.716 -7.164,-4.149 -1.102,-0.799 -2.204,-1.543 -3.307,-1.989 -0.55,-0.452 -1.101,-0.595 -1.653,-0.7 -1.102,-0.308 -1.653,-0.303 -2.755,0.082 -0.552,0.304 -1.102,1.153 -1.653,1.985 -1.102,1.608 -1.653,3.311 -0.552,4.783 0,0.22 0.552,0.451 0.552,0.723 0.551,0.268 0.551,0.577 1.653,1.106 0.551,0.535 2.204,1.295 3.307,1.995 11.572,6.944 23.144,13.987 31.41,19.161 8.267,5.174 13.226,8.48 17.634,11.44 4.408,2.959 8.265,5.566 10.47,7.318 2.755,1.752 3.858,2.656 4.96,3.24 0.551,0.579 1.102,0.843 1.102,1.058 0.552,0.612 0.552,1.075 0.552,1.549 0,0.595 0,1.058 -0.552,1.587 -0.551,0.22 -0.551,0.496 -1.653,1.102 -0.551,0.6 -1.654,1.532 -4.409,3.461 -2.755,1.923 -7.164,4.849 -12.124,8.1 -4.959,3.252 -10.469,6.833 -17.633,11.479 -7.715,4.651 -17.083,10.366 -22.593,13.567 -4.96,3.202 -6.063,3.885 -7.164,4.453 -0.552,0.567 -1.103,1.014 -1.654,1.427 -0.551,0.408 -1.102,0.777 -1.653,1.064 -0.552,0.606 -0.552,0.937 -0.552,1.427 -0.55,1.19 -0.55,2.397 0.552,3.758 0,0.325 0,0.634 0.551,0.887 1.102,1.036 2.204,1.24 3.307,1.114 0.55,-0.056 1.102,-0.353 2.204,-0.689 0,-0.155 0.551,-0.287 0.551,-0.408 0.551,-0.127 0.551,-0.243 7.715,-4.761 7.714,-4.519 22.042,-13.441 32.512,-20.026 10.471,-6.591 16.532,-10.85 22.043,-14.692 5.511,-3.84 9.92,-7.262 12.674,-9.031 C -2.204,2.353 -2.204,2.254 -2.204,2.116 -1.652,1.984 -1.652,1.813 -1.103,1.455 -1.103,1.103 -0.551,0.557 0,0"
             style="fill:#ffffff;fill-opacity:1;fill-rule:nonzero;stroke:none"
             id="path58" /></g><g
           id="g60"
           transform="translate(207.8743,330.0178)"
           style="fill:#ffffff"><path
             d="m 0,0 c 0.551,-0.722 0.551,-1.433 1.653,-2.083 0,-0.215 0.551,-0.441 1.102,-0.761 0.551,-0.319 1.654,-0.733 2.756,-1.102 7.715,-3.708 15.981,-7.208 23.696,-10.376 8.265,-3.175 15.981,-6.018 23.144,-8.592 7.715,-2.573 15.43,-4.882 23.145,-7.048 7.715,-2.159 15.981,-4.183 22.043,-5.526 6.061,-1.345 10.47,-2.006 14.327,-2.486 3.858,-0.479 7.715,-0.777 9.92,-0.909 2.204,-0.133 3.306,-0.105 4.408,0 1.102,0.099 2.204,0.27 2.755,0.49 0.551,0.215 1.654,0.474 2.204,0.777 0.552,0.298 1.103,0.639 1.654,1.031 0,0.391 0.551,0.826 1.102,1.328 0.551,0.507 0.551,1.074 1.102,1.741 0.551,0.667 0.551,1.428 1.102,2.342 0.551,0.915 0.551,1.989 1.102,4.183 0.551,2.194 1.102,5.516 1.654,9.318 0,3.802 0.55,8.09 0.55,16.08 0.552,7.996 0,19.701 0,26.032 0,6.327 -0.55,7.28 -0.55,8.085 0,0.81 -0.552,1.471 -0.552,2.044 0,0.573 -0.551,1.058 -0.551,1.483 -0.551,0.429 -1.102,0.799 -1.102,1.135 -0.551,0.331 -1.102,0.623 -1.102,0.881 -0.551,0.254 -1.102,0.48 -1.653,0.662 -1.102,0.182 -1.653,0.325 -2.756,0.402 -0.55,0.077 -1.653,0.088 -4.959,-0.149 -2.756,-0.237 -7.164,-0.716 -12.124,-1.455 -5.51,-0.738 -11.021,-1.741 -20.94,-4.27 C 83.762,30.728 69.985,26.661 59.515,23.337 49.045,20.01 41.881,17.425 34.717,14.895 28.104,12.36 22.042,9.886 16.532,7.434 10.47,4.981 5.511,2.557 0,0 M -9.919,-0.38 C 0,4.342 9.919,8.762 19.838,12.928 c 10.471,4.172 20.39,8.084 31.411,11.771 11.022,3.686 22.594,7.141 31.962,9.754 9.368,2.617 17.083,4.386 23.144,5.571 5.511,1.184 9.92,1.785 13.777,2.199 3.858,0.413 7.164,0.639 9.368,0.727 2.205,0.093 3.307,0.05 4.409,-0.044 0.551,-0.099 1.102,-0.248 2.204,-0.441 0.551,-0.193 1.102,-0.419 1.653,-0.689 0.551,-0.264 0.551,-0.573 1.103,-0.92 0.55,-0.353 1.102,-0.75 1.102,-1.207 0.55,-0.463 0.55,-0.986 1.102,-1.614 0.551,-0.629 0.551,-1.362 1.102,-2.287 0,-0.921 0,-2.04 0.551,-3.158 0.551,-8.31 1.102,-16.659 1.102,-24.021 0,-7.368 0,-13.738 -0.551,-19.618 -0.551,-5.874 -1.653,-11.258 -2.204,-14.862 -0.552,-3.605 -1.102,-5.428 -1.654,-6.85 -0.55,-1.422 -0.55,-2.447 -1.102,-3.29 -0.551,-0.843 -1.102,-1.515 -1.653,-2.099 0,-0.579 -0.551,-1.07 -1.102,-1.504 -0.551,-0.431 -1.102,-0.811 -1.653,-1.147 -0.551,-0.336 -1.102,-0.634 -1.653,-0.892 -0.551,-0.265 -1.653,-0.492 -2.205,-0.673 -1.102,-0.188 -2.204,-0.336 -3.857,-0.391 -1.653,-0.055 -3.858,-0.022 -6.613,0.203 -2.755,0.227 -7.164,0.646 -11.572,1.284 -4.409,0.64 -9.368,1.505 -15.981,2.938 -6.062,1.438 -13.777,3.449 -23.145,6.249 -9.368,2.794 -19.838,6.376 -29.758,9.936 -9.918,3.554 -18.185,7.086 -26.451,10.668 C 4.959,-7.897 -2.755,-4.26 -9.919,-0.38 Z"
             style="fill:#ffffff;fill-opacity:1;fill-rule:nonzero;stroke:none"
             id="path62" /></g><g
           id="g64"
           transform="translate(263.532,423.2083)"
           style="fill:#ffffff"><path
             d="m 0,0 c -0.551,4.133 -1.653,8.211 -2.755,11.732 -1.654,3.516 -2.756,6.476 -4.409,9.115 -1.102,2.639 -2.755,4.965 -4.409,7.075 -1.653,2.111 -3.306,4.013 -4.959,5.401 -2.756,2.706 -4.96,3.648 -7.715,4.051 -2.204,0.357 -4.409,-0.05 -7.164,-1.235 -0.551,-0.402 -1.653,-0.898 -2.204,-1.449 -1.102,-0.551 -1.654,-1.163 -2.204,-1.841 -0.552,-0.683 -0.552,-1.432 -1.102,-2.287 -0.552,-0.854 -0.552,-1.818 -1.102,-2.942 v -3.698 c 0,-4.199 0.55,-8.376 2.204,-12.438 1.102,-4.061 2.755,-8.006 4.959,-11.914 2.204,-3.907 5.511,-7.781 8.817,-11.258 2.205,-2.204 4.409,-3.621 6.613,-4.066 2.755,-0.48 4.96,-0.21 7.715,0.831 0.551,0.271 1.102,0.596 1.653,0.943 0.551,0.353 1.102,0.732 1.653,1.146 0.552,0.413 1.102,0.86 1.102,1.355 0.552,0.497 1.102,1.042 1.102,1.671 0.552,0.622 0.552,1.322 1.103,2.171 0,0.843 0.551,1.829 0.551,3.129 C -0.551,-3.212 0,-1.604 0,0 Z m 12.123,4.498 c 0,-3.197 -0.551,-6.316 -1.102,-9.171 -1.102,-2.848 -2.204,-5.439 -3.857,-7.781 -1.654,-2.342 -3.858,-4.436 -6.062,-6.254 -4.959,-3.61 -11.021,-6.001 -16.532,-6.316 -2.756,-0.176 -5.51,0.094 -8.266,0.777 -4.96,1.428 -9.919,4.133 -14.879,9.606 -2.204,2.749 -4.408,6.26 -6.613,9.797 -1.653,3.544 -3.306,7.115 -3.857,10.774 -1.102,3.659 -1.653,7.406 -1.653,10.839 0,3.439 0.551,6.563 1.653,9.418 0.551,2.854 1.653,5.439 3.306,7.781 1.654,2.342 3.858,4.436 6.062,6.254 2.756,1.819 5.511,3.356 8.266,4.425 2.755,1.069 5.511,1.665 8.817,1.813 2.756,0.144 5.511,-0.17 8.266,-0.931 2.755,-0.76 5.511,-1.973 7.715,-3.67 2.756,-1.692 4.96,-3.862 7.164,-6.447 2.204,-2.59 3.857,-5.594 6.062,-9.192 1.653,-3.593 3.306,-7.786 3.857,-11.523 1.102,-3.731 1.653,-7.004 1.653,-10.199"
             style="fill:#ffffff;fill-opacity:1;fill-rule:nonzero;stroke:none"
             id="path66" /></g><g
           id="g68"
           transform="translate(305.9636,464.8694)"
           style="fill:#ffffff"><path
             d="m 0,0 c 0,-1.323 -1.103,-2.822 -2.204,-4.415 -2.204,-1.873 -4.408,-3.218 -6.062,-2.981 -0.551,0.16 -1.103,0.568 -2.204,1.279 0,0.314 -0.551,0.716 -0.551,1.273 -0.551,0.556 -1.102,1.267 -1.102,2.16 -0.551,0.892 -1.102,1.962 -1.653,3.163 0,1.196 -0.552,2.518 -1.102,3.808 0,1.289 -0.552,2.546 -0.552,3.648 v 2.882 c -0.55,0.821 -0.55,1.504 0,2.088 v 1.472 1.008 c 0.552,0.601 0.552,1.036 1.102,1.594 0.552,0.214 1.103,0.34 1.103,0.417 1.102,0.21 1.653,0.359 2.755,0.441 0.551,0.084 1.102,0.094 1.653,0.067 0.551,-0.028 1.102,-0.099 1.653,-0.193 0.552,-0.1 1.102,-0.221 1.102,-0.353 0.552,-0.242 1.103,-0.524 1.654,-0.981 0.551,-0.44 1.102,-0.926 1.102,-1.471 0.551,-0.551 1.102,-1.163 1.653,-1.879 0,-0.717 0.551,-1.532 0.551,-2.524 C -0.551,9.511 -0.551,8.348 0,6.755 V 1.118 Z m -13.225,-44.422 c 2.755,0.573 6.061,1.323 8.816,1.885 2.756,0.562 4.96,0.931 7.164,1.24 -2.755,3.956 -4.959,8.051 -6.612,11.137 -1.653,3.08 -2.205,5.158 -2.755,6.838 -0.552,1.681 -1.103,2.971 -1.103,4.067 v 2.783 2.094 c 1.103,0.017 2.756,0.144 3.857,0.408 1.653,0.264 3.307,0.678 4.96,1.086 1.102,0.413 2.205,0.826 2.755,1.207 1.103,0.38 1.653,0.732 2.205,1.063 0.551,0.331 1.102,0.645 1.102,0.987 1.653,1.283 2.755,2.694 3.857,3.912 1.653,2.402 2.205,4.183 2.755,6.194 0.551,0.992 0.551,2.006 0.551,3.086 v 3.466 c 0,1.245 -0.551,2.595 -1.101,4.089 0,1.493 -0.552,3.13 -1.103,4.579 -0.55,1.449 -1.102,2.706 -2.204,3.808 -0.551,1.097 -1.102,2.034 -1.653,2.844 -3.306,4.221 -7.164,5.373 -10.471,5.593 -0.551,0.038 -1.653,0.016 -2.754,-0.116 -1.103,-0.132 -2.756,-0.374 -4.96,-0.733 -2.205,-0.358 -4.959,-0.832 -8.817,-1.907 -4.409,-1.074 -10.471,-2.744 -15.981,-4.545 0.55,-0.37 0.55,-0.805 1.102,-1.648 0.552,-0.849 1.653,-2.1 2.755,-4.579 1.103,-2.475 2.204,-6.178 3.858,-11.716 1.653,-5.538 3.857,-12.912 5.511,-19.53 1.101,-6.618 2.203,-12.481 2.755,-16.681 0.551,-4.193 0.551,-6.723 0.551,-8.503 v -3.84 c 1.102,0.457 2.755,0.859 4.96,1.432"
             style="fill:#ffffff;fill-opacity:1;fill-rule:nonzero;stroke:none"
             id="path70" /></g><g
           id="g72"
           transform="translate(217.2424,205.1956)"
           style="fill:#ffffff"><path
             d="m 0,0 c 7.164,10.619 13.776,21.701 18.736,30.926 4.409,9.23 7.715,16.61 9.368,22.186 1.653,5.576 2.205,9.352 2.755,13.176 2.756,-1.223 4.96,-2.402 10.471,-4.629 5.51,-2.226 13.225,-5.5 18.185,-7.698 5.51,-2.199 7.715,-3.323 10.47,-4.497 -2.204,-4.481 -3.857,-8.949 -5.51,-11.787 -1.102,-2.838 -1.654,-4.039 -1.654,-4.894 -0.55,-0.848 -1.102,-1.339 -1.102,-1.835 0,0.997 0,1.984 -0.551,2.849 0,0.865 -0.551,1.609 -0.551,2.629 -0.551,1.025 -1.102,2.32 -1.653,3.582 -0.551,1.35 -1.102,2.629 -2.204,3.763 -1.654,2.337 -3.858,3.891 -5.511,4.575 -3.307,0.914 -6.061,0.755 -8.817,-2.205 0,-0.358 -0.551,-0.766 -1.102,-1.24 0,-0.479 -0.551,-1.025 -1.102,-1.659 0,-0.634 -0.551,-1.355 -0.551,-2.16 -1.102,-1.608 -1.654,-3.609 -1.654,-5.494 -0.551,-0.947 -0.551,-1.852 -0.551,-2.645 v -2.045 -1.366 c 0,-0.358 0.551,-0.629 0.551,-0.854 0,-0.347 0,-0.578 0.552,-0.838 0,-0.071 0,-0.132 0.55,-0.165 1.103,-0.392 2.756,-0.655 3.858,-0.788 1.653,-0.132 2.755,-0.138 4.959,0.165 2.205,0.303 4.96,0.915 7.716,1.714 C 55.106,27.212 54.004,25.663 52.902,22.787 51.249,19.91 49.596,15.7 47.942,12.835 46.84,9.969 45.738,8.448 45.188,6.916 c -1.103,2.805 -2.205,5.577 -2.756,7.208 -1.102,1.631 -1.653,2.122 -1.653,2.573 -0.551,0.452 -1.102,0.861 -1.654,1.357 -0.55,0.495 -1.653,1.068 -2.204,1.466 -1.102,0.39 -1.653,0.605 -1.653,0.765 -2.204,0.611 -4.409,0.821 -6.061,-0.854 -0.552,-0.441 -1.103,-0.904 -1.103,-1.41 -0.551,-0.282 -0.551,-0.59 -1.102,-1.533 0,-0.948 -0.551,-2.529 -1.102,-4.414 C 24.798,10.189 24.247,8.002 23.145,4.563 22.594,1.119 21.492,-3.57 20.389,-8.282 19.287,-7.759 18.185,-7.273 15.43,-6.155 12.674,-5.042 7.715,-3.289 4.959,-2.165 2.204,-1.041 1.102,-0.534 0,0"
             style="fill:#ffffff;fill-opacity:1;fill-rule:nonzero;stroke:none"
             id="path74" /></g><g
           id="g76"
           transform="translate(315.8831,245.0657)"
           style="fill:#ffffff"><path
             d="m 0,0 c -0.551,-0.138 -1.102,-0.336 -1.653,-0.623 0,-0.286 -0.551,-0.661 -1.102,-1.234 -0.552,-0.568 -1.654,-1.333 -2.204,-2.54 -1.103,-1.207 -1.654,-2.855 -3.307,-5.335 -1.102,-2.474 -2.755,-5.781 -4.408,-10.493 -1.654,-4.706 -3.858,-10.817 -5.511,-17.16 -2.205,-6.343 -3.857,-12.917 -4.409,-17.688 -1.102,-4.768 -1.653,-7.732 -1.653,-9.666 v -3.742 c -0.551,0.099 -1.102,0.253 -3.306,0.837 -2.204,0.584 -5.511,1.593 -8.817,2.728 -3.307,1.136 -6.613,2.392 -9.92,3.748 1.654,1.206 2.756,2.573 4.409,4.86 1.102,2.287 3.306,5.495 5.511,10.278 2.204,4.788 4.959,11.159 7.163,17.705 2.205,6.541 3.858,13.264 4.96,18.488 1.102,5.225 1.653,8.944 1.653,11.683 0.552,2.739 0.552,4.491 0,6.211 1.102,-0.486 2.756,-0.976 6.613,-2.321 C -12.674,4.397 -6.613,2.198 0,0"
             style="fill:#ffffff;fill-opacity:1;fill-rule:nonzero;stroke:none"
             id="path78" /></g><g
           id="g80"
           transform="translate(437.1174,235.2346)"
           style="fill:#ffffff"><path
             d="m 0,0 c 1.653,-2.794 2.755,-5.692 3.857,-10.008 1.103,-4.314 2.755,-10.04 3.858,-16.339 1.102,-6.299 2.204,-13.17 2.755,-18.884 0,-5.715 0.551,-10.267 0,-13.728 0,-3.46 0,-5.824 -0.551,-7.582 -0.551,-1.753 -0.551,-2.898 -1.102,-3.775 -0.551,-0.881 -0.551,-1.494 -1.102,-2.05 l 42.983,4.64 v 21.029 c -1.653,-2.623 -3.306,-5.115 -4.96,-7.142 -4.96,-6.023 -9.919,-8.409 -14.879,-9.38 -1.653,-0.319 -3.857,-0.44 -5.51,-0.363 l -3.306,26.17 c 2.204,0.308 3.857,0.463 5.51,0.452 2.204,-0.006 3.857,-0.171 5.51,-0.502 1.654,-0.325 3.307,-0.815 5.511,-1.625 1.654,-0.805 3.307,-1.934 5.511,-3.24 l -3.307,24.031 c -1.102,-1.956 -2.204,-3.774 -3.857,-5.213 -1.102,-1.438 -2.755,-2.49 -4.408,-3.295 -1.103,-0.81 -2.756,-1.367 -4.409,-1.68 -2.204,-0.315 -3.857,-0.386 -6.062,-0.188 l -3.307,22.119 c 2.205,0.585 4.96,0.905 7.165,0.949 4.408,0.054 8.817,-0.838 12.674,-3.179 2.204,-1.186 4.408,-2.779 6.613,-4.597 L 42.982,4.915 -0.001,0 Z"
             style="fill:#ffffff;fill-opacity:1;fill-rule:nonzero;stroke:none"
             id="path82" /></g><g
           id="g84"
           transform="translate(374.8469,233.7795)"
           style="fill:#ffffff"><path
             d="m 0,0 c 0.551,-0.557 0.551,-1.157 1.102,-2.204 0.551,-1.047 0.551,-2.54 1.103,-5.213 0.55,-2.667 1.102,-6.514 1.102,-11.837 0,-5.323 0.55,-12.118 0,-18.367 0,-6.255 -0.552,-11.964 -1.102,-16.273 -0.552,-4.309 -1.103,-7.224 -1.654,-9.357 -0.551,-2.127 -1.102,-3.478 -1.653,-4.464 -0.551,-0.986 -0.551,-1.614 -1.102,-2.099 0,-0.48 -0.551,-0.81 -1.102,-1.097 l 17.634,-1.471 c -0.551,2.044 -1.102,4.154 -1.653,7.665 -0.551,3.505 -1.103,8.404 -1.103,15.843 0,7.445 0,17.436 0.552,27.394 l 30.859,-51.696 9.369,-0.011 v 45.86 c 0,10.58 0.55,14.091 1.101,16.653 0.552,2.557 1.103,4.166 1.653,5.378 0.551,1.218 0.551,2.034 1.103,2.679 0.551,0.644 1.102,1.118 1.102,1.52 L 40.228,0 c 0.551,-0.716 1.102,-1.521 1.653,-2.601 0.551,-1.08 0.551,-2.441 1.102,-4.43 0.551,-1.99 1.102,-4.613 1.102,-11.17 0,-6.558 -0.551,-17.056 -1.102,-27.498 L 15.981,0 Z"
             style="fill:#ffffff;fill-opacity:1;fill-rule:nonzero;stroke:none"
             id="path86" /></g><g
           id="g88"
           transform="translate(529.1458,234.4133)"
           style="fill:#ffffff"><path
             d="m 0,0 -3.307,17.479 c -3.306,0.006 -7.164,-0.269 -10.47,-0.765 -3.306,-0.49 -5.511,-1.195 -8.266,-2.028 -2.204,-0.827 -3.857,-1.78 -5.511,-2.822 -1.653,-1.041 -3.306,-2.171 -4.408,-3.378 -1.102,-1.201 -1.653,-2.49 -2.756,-3.868 -0.551,-1.384 -1.101,-2.854 -1.653,-4.458 -0.551,-2.375 -0.551,-4.987 -1.102,-7.61 0.551,-2.31 0.551,-4.635 1.654,-6.828 1.101,-2.303 2.755,-4.403 4.959,-6.569 1.102,-0.794 2.204,-1.636 3.306,-2.6 1.654,-0.971 3.307,-2.073 6.613,-3.688 3.858,-1.614 8.817,-3.747 12.124,-5.251 3.306,-1.505 4.408,-2.381 5.51,-3.114 1.654,-1.377 2.755,-2.314 3.307,-3.383 1.652,-2.888 1.102,-5.202 0,-8.084 0,-0.435 -0.552,-0.838 -1.104,-1.196 0,-0.358 -0.549,-0.672 -1.101,-0.948 -0.552,-0.27 -1.102,-0.507 -1.653,-0.7 -0.551,-0.193 -1.102,-0.341 -1.653,-0.446 -0.551,-0.099 -1.102,-0.154 -2.205,-0.133 -0.551,0.023 -1.653,0.117 -2.755,0.331 -1.102,0.215 -2.755,0.546 -4.408,1.08 -1.102,0.53 -3.307,1.268 -5.511,2.392 -2.205,1.124 -4.96,2.634 -7.714,4.26 l 4.958,-18.296 c 6.063,-0.055 11.573,0.187 15.43,0.585 3.858,0.396 6.063,0.942 7.716,1.493 1.652,0.557 2.755,1.113 3.856,1.725 1.103,0.611 1.654,1.278 2.756,2 1.103,0.722 1.654,1.499 2.204,2.353 0.551,0.855 1.103,1.785 1.653,2.821 0.552,1.031 1.103,2.171 1.653,3.456 0.552,1.278 1.103,2.706 1.103,4.326 0.55,1.626 0.55,3.444 0.55,5.273 0,3.296 -0.55,6.447 -3.306,9.627 -0.55,0.646 -1.102,1.284 -1.653,1.985 -1.102,0.694 -1.653,1.449 -2.755,2.281 -1.102,0.832 -2.755,1.735 -4.959,2.921 -2.206,1.184 -5.511,2.644 -9.369,4.264 -3.306,1.62 -7.714,3.395 -10.47,4.629 -2.204,1.235 -3.307,1.935 -3.858,2.508 -1.102,1.069 -1.653,1.846 -2.204,2.738 -0.551,1.268 -1.102,2.464 -0.551,3.687 0,1.444 1.102,2.998 2.204,4.684 0.551,0.64 1.654,1.229 2.205,1.664 1.653,0.872 2.204,1.213 3.857,1.4 0.552,0.089 1.103,0.122 1.653,0.077 1.102,-0.044 1.654,-0.159 2.755,-0.396 1.103,-0.243 2.204,-0.601 4.409,-1.516 C -6.062,3.048 -2.757,1.582 0,0"
             style="fill:#ffffff;fill-opacity:1;fill-rule:nonzero;stroke:none"
             id="path90" /></g><g
           id="g92"
           transform="translate(537.9622,244.6467)"
           style="fill:#ffffff"><path
             d="m 0,0 c 0.551,-3.67 1.653,-7.423 4.408,-11.005 0.552,-0.639 1.103,-1.245 1.654,-1.868 1.102,-0.623 1.653,-1.251 2.755,-1.896 1.102,-0.644 2.204,-1.305 3.858,-2.039 1.653,-0.727 3.306,-1.532 7.164,-2.584 3.857,-1.052 9.368,-2.359 12.674,-3.339 3.306,-0.981 4.96,-1.643 6.062,-2.21 1.102,-0.562 1.653,-1.031 2.204,-1.488 1.654,-1.373 2.755,-2.756 2.755,-4.089 0.551,-1.665 0.551,-3.356 0,-5.213 0,-0.474 -0.551,-0.926 -1.101,-1.339 0,-0.413 -0.552,-0.783 -0.552,-1.124 -0.551,-0.336 -1.102,-0.645 -1.653,-0.92 -0.551,-0.271 -1.102,-0.513 -1.653,-0.717 -0.552,-0.204 -1.102,-0.363 -2.205,-0.474 -0.551,-0.116 -1.653,-0.171 -2.755,-0.137 -1.102,0.033 -2.756,0.154 -4.408,0.434 -1.653,0.277 -3.307,0.712 -6.062,1.455 -2.205,0.739 -5.511,1.791 -8.266,2.971 l 7.715,-17.266 c 6.061,0.861 11.572,2.023 15.429,3.026 3.858,0.998 5.511,1.836 7.165,2.623 1.653,0.794 2.754,1.543 3.306,2.32 1.102,0.777 2.204,1.576 2.755,2.425 0.552,0.843 1.103,1.725 1.653,2.678 0.551,0.948 1.103,1.962 1.654,3.07 0.55,1.107 0.55,2.314 1.102,3.647 v 4.448 5.312 c -0.552,3.059 -1.653,6.012 -4.96,8.971 -0.551,0.557 -1.102,1.097 -2.204,1.67 -0.552,0.573 -1.653,1.179 -2.756,1.824 -1.653,0.645 -2.755,1.334 -5.51,2.145 -2.205,0.809 -5.511,1.752 -9.369,2.765 -4.408,1.02 -8.816,2.116 -11.02,2.938 -2.756,0.826 -3.858,1.382 -4.409,1.84 -1.102,0.462 -1.654,0.827 -2.204,1.201 -1.654,1.642 -2.205,3.147 -2.205,4.684 0.551,1.537 1.103,3.185 1.654,4.988 1.101,1.432 2.755,2.6 3.857,3.223 0.551,0.309 1.102,0.545 1.654,0.728 0.549,0.181 1.101,0.308 1.653,0.38 1.101,0.071 1.653,0.083 2.755,0.01 1.102,-0.077 2.204,-0.242 4.96,-0.804 2.204,-0.562 5.51,-1.521 8.816,-2.601 L 30.309,27.415 C 26.451,26.848 23.145,26.005 19.839,25.023 17.083,24.049 14.328,22.93 12.123,21.757 10.47,20.577 8.266,19.338 7.163,18.053 5.51,16.769 4.408,15.446 3.306,14.074 2.756,12.702 1.652,11.286 1.103,9.804 0,6.783 0,3.378 0,0"
             style="fill:#ffffff;fill-opacity:1;fill-rule:nonzero;stroke:none"
             id="path94" /></g><g
           id="g96"
           transform="translate(335.1702,232.9641)"
           style="fill:#ffffff"><path
             d="m 0,0 c 0.551,-0.193 0,-0.242 0.551,-0.507 v -1.46 c 0,-1.019 -0.551,-2.789 -1.102,-6.299 0,-3.505 -1.102,-8.756 -2.204,-13.959 -1.103,-5.207 -2.204,-10.371 -3.307,-14.614 -1.102,-4.243 -1.653,-7.566 -2.755,-10.217 -0.551,-2.656 -1.654,-4.633 -2.204,-6.259 -0.551,-1.621 -1.103,-2.877 -1.653,-3.924 -0.552,-1.041 -1.103,-1.868 -1.103,-2.519 -0.551,-0.644 -1.101,-1.118 -1.101,-1.543 -0.552,-0.419 -0.552,-0.793 -1.103,-1.145 l 23.145,-4.37 c -0.551,0.423 -0.551,0.865 -0.551,1.388 0,0.524 -0.551,1.13 -0.551,1.956 v 3.328 c 0,1.466 -0.551,3.351 0,5.953 0,2.6 0,5.907 0.551,10.469 0.551,4.569 1.653,10.394 2.204,16.395 1.102,5.995 2.204,12.173 3.307,16.097 1.102,3.923 1.653,5.592 1.653,6.518 0.55,0.926 0.55,1.108 0.55,1.234 0,0.133 0,0.215 0.551,0.282 0.552,0.518 1.654,0.457 2.756,0.171 0,-0.105 0.551,-0.243 1.102,-0.447 0,-0.204 0.551,-0.473 1.102,-0.865 0.552,-0.392 1.102,-0.898 2.205,-1.647 0.55,-0.75 1.653,-1.742 3.306,-3.61 1.653,-1.874 3.857,-4.624 6.062,-7.434 L 34.717,0.815 -17.634,11.28 -20.94,-7.379 c 3.306,1.968 6.612,3.808 8.816,4.993 2.205,1.185 3.857,1.714 4.96,2.088 1.102,0.369 1.653,0.579 2.756,0.706 0.55,0.126 1.102,0.17 1.653,0.159 C -1.653,0.546 -0.551,0.38 0,0"
             style="fill:#ffffff;fill-opacity:1;fill-rule:nonzero;stroke:none"
             id="path98" /></g><g
           id="g100"
           transform="translate(323.0471,499.575)"
           style="fill:#ffffff"><path
             d="m 0,0 2.204,-18.025 c 2.204,2.297 3.858,4.502 5.511,6.089 1.653,1.582 2.755,2.546 3.857,3.295 1.102,0.755 1.653,1.295 2.756,1.714 2.203,1.13 3.857,1.554 6.061,1.466 2.204,-14.653 3.858,-29.377 4.96,-38.211 0.551,-8.833 0.551,-11.776 0.551,-13.964 -0.551,-2.188 -0.551,-3.626 -0.551,-4.722 -0.551,-1.092 -0.551,-1.847 -1.102,-2.453 0,-0.601 -0.551,-1.052 -0.551,-1.455 l 21.491,2.001 c -0.551,0.435 -1.102,1.058 -2.204,2.165 -0.551,0.596 -0.551,1.357 -1.102,2.436 -0.551,1.081 -1.102,2.475 -1.653,4.651 -0.552,2.178 -1.654,5.131 -2.756,13.788 -1.102,8.662 -2.756,23.023 -3.857,37.401 1.102,0.176 2.204,0.265 2.755,0.265 1.102,0.005 2.204,-0.078 3.306,-0.276 1.103,-0.204 2.205,-0.524 3.307,-1.025 1.653,-0.501 3.306,-1.185 4.959,-2.353 1.654,-1.169 4.409,-2.828 6.613,-4.624 L 52.902,4.916 Z"
             style="fill:#ffffff;fill-opacity:1;fill-rule:nonzero;stroke:none"
             id="path102" /></g><g
           id="g104"
           transform="translate(384.2151,506.491)"
           style="fill:#ffffff"><path
             d="m 0,0 21.491,0.182 c 0,-0.292 -0.551,-0.618 -0.551,-1.02 -0.55,-0.402 -0.55,-0.881 -1.101,-1.576 0,-0.689 -0.552,-1.598 -1.103,-2.882 0,-1.284 -0.55,-2.942 -0.55,-5.301 -0.552,-2.358 -1.103,-5.417 -1.103,-9.407 v -14.135 c 0,-5.213 0.551,-10.701 1.103,-15.198 0.55,-4.496 1.101,-7.996 1.653,-10.547 0.551,-2.546 1.101,-4.144 1.101,-5.302 0.551,-1.151 1.103,-1.868 1.103,-2.358 0.551,-0.491 0.551,-0.755 0.551,-0.965 0.551,-0.215 0.551,-0.369 1.102,-0.49 H 0 c 0.551,0.022 1.102,0.325 1.653,0.898 0.551,0.232 0.551,0.551 0.551,0.937 0.551,0.386 0.551,0.838 1.103,1.521 0,0.678 0.55,1.593 0.55,2.85 0.552,1.25 0.552,2.837 1.102,5.086 0,2.248 0.552,5.157 0.552,8.959 v 13.502 c 0,5.009 -0.552,10.332 -0.552,14.774 -0.55,4.441 -1.102,8.001 -1.652,10.619 -0.552,2.617 -0.552,4.292 -1.103,5.527 -0.551,1.234 -0.551,2.034 -1.102,2.584 0,0.552 0,0.86 -0.551,1.114 0,0.259 0,0.457 -0.551,0.628"
             style="fill:#ffffff;fill-opacity:1;fill-rule:nonzero;stroke:none"
             id="path106" /></g><g
           id="g108"
           transform="translate(423.3411,506.6726)"
           style="fill:#ffffff"><path
             d="m 0,0 17.634,-2.458 11.572,-48.334 24.798,44.24 16.532,-1.912 c -0.551,-0.419 -1.102,-0.904 -1.653,-1.571 -0.551,-0.667 -1.103,-1.51 -1.654,-2.706 -0.55,-1.196 -1.101,-2.744 -2.204,-5.003 -0.55,-2.259 -1.102,-5.241 -1.653,-9.479 -1.101,-4.236 -1.653,-9.742 -2.204,-16.09 -0.551,-6.354 -0.551,-13.562 -0.551,-19.029 0.551,-5.466 1.102,-9.192 1.102,-11.583 0.552,-2.392 1.102,-3.444 1.102,-4.431 l -22.043,4.288 c 0.551,0.683 1.103,1.46 2.204,2.49 0.552,1.026 1.103,2.304 1.654,4.111 1.102,1.813 1.653,4.15 2.756,10.294 1.101,6.139 2.204,16.091 2.754,26.044 L 28.655,-69.181 c 0,-0.441 -0.551,-0.859 -0.551,-1.217 -1.653,-2.105 -3.858,-2.513 -5.51,-1.533 0,0.177 -0.552,0.397 -0.552,0.668 -0.551,0.589 -1.102,1.338 -1.653,2.082 L 9.368,-25.668 C 8.266,-33.306 7.163,-41.01 6.612,-46.719 c -0.55,-5.709 -0.55,-9.418 -0.55,-12.267 0,-2.849 0.55,-4.833 0.55,-6.397 0.551,-1.566 1.103,-2.706 1.654,-3.798 H -9.92 c 0.552,0.304 1.103,0.656 1.653,1.411 0.552,0.43 1.103,1.031 1.103,1.896 0.551,0.859 1.102,1.995 1.653,3.714 0.551,1.719 1.102,4.034 2.204,7.632 0.551,3.604 1.654,8.487 2.204,14.901 1.103,6.415 1.654,14.35 1.654,20.665 0.551,6.31 0.551,10.999 0,13.892 0,2.9 0,4.001 -0.551,5.07"
             style="fill:#ffffff;fill-opacity:1;fill-rule:nonzero;stroke:none"
             id="path110" /></g><g
           id="g112"
           transform="translate(423.3411,506.6726)"
           style="fill:#ffffff"><path
             d="m 0,0 17.634,-2.458 11.572,-48.334 24.798,44.24 16.532,-1.912 c -0.551,-0.419 -1.102,-0.904 -1.653,-1.571 -0.551,-0.667 -1.103,-1.51 -1.654,-2.706 -0.55,-1.196 -1.101,-2.744 -2.204,-5.003 -0.55,-2.259 -1.102,-5.241 -1.653,-9.479 -1.101,-4.236 -1.653,-9.742 -2.204,-16.09 -0.551,-6.354 -0.551,-13.562 -0.551,-19.029 0.551,-5.466 1.102,-9.192 1.102,-11.583 0.552,-2.392 1.102,-3.444 1.102,-4.431 l -22.043,4.288 c 0.551,0.683 1.103,1.46 2.204,2.49 0.552,1.026 1.103,2.304 1.654,4.111 1.102,1.813 1.653,4.15 2.756,10.294 1.101,6.139 2.204,16.091 2.754,26.044 L 28.655,-69.181 c 0,-0.441 -0.551,-0.859 -0.551,-1.217 -1.653,-2.105 -3.858,-2.513 -5.51,-1.533 0,0.177 -0.552,0.397 -0.552,0.668 -0.551,0.589 -1.102,1.338 -1.653,2.082 L 9.368,-25.668 C 8.266,-33.306 7.163,-41.01 6.612,-46.719 c -0.55,-5.709 -0.55,-9.418 -0.55,-12.267 0,-2.849 0.55,-4.833 0.55,-6.397 0.551,-1.566 1.103,-2.706 1.654,-3.798 H -9.92 c 0.552,0.304 1.103,0.656 1.653,1.411 0.552,0.43 1.103,1.031 1.103,1.896 0.551,0.859 1.102,1.995 1.653,3.714 0.551,1.719 1.102,4.034 2.204,7.632 0.551,3.604 1.654,8.487 2.204,14.901 1.103,6.415 1.654,14.35 1.654,20.665 0.551,6.31 0.551,10.999 0,13.892 0,2.9 0,4.001 -0.551,5.07"
             style="fill:#ffffff;fill-opacity:1;fill-rule:nonzero;stroke:none"
             id="path114" /></g><g
           id="g116"
           transform="translate(544.5754,484.283)"
           style="fill:#ffffff" /><g
           id="g120"
           transform="translate(544.5754,484.283)"
           style="fill:#ffffff" /><g
           id="g124"
           transform="translate(531.9006,468.3074)"
           style="fill:#ffffff" /><g
           id="g128"
           transform="translate(579.843,468.3074)"
           style="fill:#ffffff"><path
             d="m 0,0 19.287,-9.88 c -1.101,-0.993 -2.204,-2.133 -4.408,-3.957 -1.653,-1.824 -3.858,-4.331 -8.266,-12.614 -4.96,-8.277 -12.124,-22.329 -18.736,-36.585 0.551,-0.562 1.102,-1.069 1.653,-1.527 0.551,-0.457 1.102,-0.865 1.654,-1.223 1.101,-0.364 2.204,-0.678 2.754,-0.92 1.103,-0.248 2.756,-0.43 3.858,-0.507 1.653,-0.078 3.857,-0.061 6.613,0.347 2.755,0.402 6.612,1.196 10.47,2.188 L 3.857,-80.334 -30.309,-62.138 c 0.552,0.474 1.103,1.036 2.205,2.017 1.102,0.981 2.205,2.375 3.857,4.689 1.653,2.321 3.858,5.555 6.613,10.113 2.755,4.557 6.062,10.442 8.818,16.08 2.204,5.637 4.408,11.027 6.061,15.049 1.653,4.028 2.204,6.69 2.755,8.569 v 3.775 C 0.552,-1.036 0,-0.507 0,0"
             style="fill:#ffffff;fill-opacity:1;fill-rule:nonzero;stroke:none"
             id="path130" /></g></g></g><path
       inkscape:path-effect="#path-effect364"
       inkscape:original-d="m 378.35717,111.24252 h -9.368 c -12.124,-15.853999 -24.247,-31.498999 -31.41101,-40.442999 -7.164,-8.944 -9.919,-11.192 -11.573,-12.729 -1.653,-1.538 -2.754,-2.359 -3.857,-3.086 l 18.18601,-6.007 c -1.103,2.067 -1.103,4.133 -1.103,6.166 0,0.728 0,1.477 0.551,2.293 0,0.81 0,1.686 0.551,2.711 0.551,1.031 1.102,2.21 2.755,4.447 1.654,2.238 4.409,5.533 7.164,8.691 l 16.532,-4.916 c -0.551,-4.865 -0.551,-9.737 -0.551,-12.762 -0.551,-3.026 -0.551,-4.21 -1.103,-5.142 0,-0.937 -0.55,-1.615 -0.55,-2.193 0,-0.573 -0.551,-1.042 -0.551,-1.449 -0.551,-0.408 -0.551,-0.761 -1.102,-1.075 -1.103,-1.118 -2.205,-1.593 -3.306,-1.956 l 22.042,-7.919 c -0.551,0.43 -0.551,0.92 -1.102,1.741 -0.552,0.827 -0.552,1.984 -1.102,4.111 -0.551,2.121 -1.103,5.214 -1.103,16.962 -0.551,11.755 -0.551,32.171 0,52.554999 z"
       transform="translate(146.72775,383.17548)"
       clip-path="url(#clipPath360)"
       id="path122-7"
       style="fill:#ffffff;fill-opacity:1;fill-rule:nonzero;stroke:none;stroke-width:0.999998"
       d="m 378.35717,111.24252 h -9.368 c -12.124,-15.853999 -24.247,-31.498999 -31.41101,-40.442999 -7.164,-8.944 -9.919,-11.192 -11.573,-12.729 -1.653,-1.538 -2.754,-2.359 -3.857,-3.086 l 18.18601,-6.007 c -1.103,2.067 -1.103,4.133 -1.103,6.166 0,0.728 0,1.477 0.551,2.293 0,0.81 0,1.686 0.551,2.711 0.551,1.031 1.102,2.21 2.755,4.447 1.654,2.238 4.409,5.533 7.164,8.691 l 16.532,-4.916 c -0.551,-4.865 -0.551,-9.737 -0.551,-12.762 -0.551,-3.026 -0.551,-4.21 -1.103,-5.142 0,-0.937 -0.55,-1.615 -0.55,-2.193 0,-0.573 -0.551,-1.042 -0.551,-1.449 -0.551,-0.408 -0.551,-0.761 -1.102,-1.075 -1.103,-1.118 -2.205,-1.593 -3.306,-1.956 l 22.042,-7.919 c -0.551,0.43 -0.551,0.92 -1.102,1.741 -0.552,0.827 -0.552,1.984 -1.102,4.111 -0.551,2.121 -1.103,5.214 -1.103,16.962 -0.551,11.755 -0.551,32.171 0,52.554999 z" /></g></svg>
