<?xml version="1.0" encoding="UTF-8" standalone="no"?>
<svg
   xmlns:dc="http://purl.org/dc/elements/1.1/"
   xmlns:cc="http://creativecommons.org/ns#"
   xmlns:rdf="http://www.w3.org/1999/02/22-rdf-syntax-ns#"
   xmlns:svg="http://www.w3.org/2000/svg"
   xmlns="http://www.w3.org/2000/svg"
   xmlns:sodipodi="http://sodipodi.sourceforge.net/DTD/sodipodi-0.dtd"
   xmlns:inkscape="http://www.inkscape.org/namespaces/inkscape"
   inkscape:version="1.0.2-2 (e86c870879, 2021-01-15)"
   sodipodi:docname="optimal-white-logo-only.svg"
   viewBox="0 0 620.13293 212.97268"
   height="212.97269"
   width="620.13293"
   xml:space="preserve"
   id="svg10"
   version="1.1"
   inkscape:export-filename="C:\Users\Jay\Documents\Projects\Personal\optimal-fitness\src\assets\images\optimal-white-logo-only.png"
   inkscape:export-xdpi="33.352135"
   inkscape:export-ydpi="33.352135"><metadata
     id="metadata16"><rdf:RDF><cc:Work
         rdf:about=""><dc:format>image/svg+xml</dc:format><dc:type
           rdf:resource="http://purl.org/dc/dcmitype/StillImage" /><dc:title /></cc:Work></rdf:RDF></metadata><defs
     id="defs14"><clipPath
       id="clipPath26"
       clipPathUnits="userSpaceOnUse"><path
         id="path24"
         d="M 0,612 H 792 V 0 H 0 Z" /></clipPath><clipPath
       clipPathUnits="userSpaceOnUse"
       id="clipPath138"><rect
         style="fill:#0000ff;fill-rule:evenodd;stroke-width:0.75"
         id="rect140"
         width="616.24359"
         height="180.31224"
         x="98.086067"
         y="-430.83365"
         transform="scale(1,-1)" /></clipPath><clipPath
       clipPathUnits="userSpaceOnUse"
       id="clipPath144"><rect
         style="fill:#000000;stroke-width:0.756938"
         id="rect146"
         width="607.875"
         height="160.875"
         x="103.2711"
         y="-412.08365"
         transform="scale(1,-1)" /></clipPath></defs><sodipodi:namedview
     inkscape:current-layer="g18"
     inkscape:window-maximized="1"
     inkscape:window-y="-11"
     inkscape:window-x="-11"
     inkscape:cy="162.57892"
     inkscape:cx="392.70243"
     inkscape:zoom="4"
     showgrid="false"
     id="namedview12"
     inkscape:window-height="2066"
     inkscape:window-width="3840"
     inkscape:pageshadow="2"
     inkscape:pageopacity="0"
     guidetolerance="10"
     gridtolerance="10"
     objecttolerance="10"
     borderopacity="1"
     bordercolor="#666666"
     pagecolor="#ffffff"
     inkscape:document-rotation="0" /><g
     transform="matrix(1.3333333,0,0,-1.3333333,-187.25447,562.95823)"
     inkscape:label="optimalfitness logo"
     inkscape:groupmode="layer"
     id="g18"><g
       transform="translate(-19.490443,10.135034)"
       id="g20"
       clip-path="url(#clipPath144)"
       style="fill:#ffffff"
       inkscape:export-xdpi="63.106686"
       inkscape:export-ydpi="63.106686"><g
         clip-path="url(#clipPath26)"
         id="g22"
         style="fill:#ffffff"><g
           transform="translate(421.137,326.8269)"
           id="g28"
           style="fill:#ffffff"><path
             id="path30"
             style="fill:#ffffff;fill-opacity:1;fill-rule:nonzero;stroke:none"
             d="m 0,0 c 0.551,-10.327 1.102,-19.943 1.652,-26.671 0.552,-6.723 1.103,-10.553 1.103,-13.798 0.551,-3.252 1.102,-5.919 1.653,-8.575 0.551,-2.657 1.654,-5.296 2.204,-7.225 0.551,-1.923 1.654,-3.13 2.204,-4.166 0.551,-1.042 1.103,-1.912 2.205,-2.667 0.551,-0.761 1.102,-1.4 2.205,-1.901 0.55,-0.502 1.1,-0.872 1.652,-1.136 2.755,-1.079 4.96,-1.008 7.164,1.543 0.551,0.496 0.551,1.092 1.103,1.841 0.55,0.744 1.101,1.642 1.101,2.563 1.103,3.278 2.204,6.54 2.756,8.739 1.102,2.199 1.102,3.334 1.653,4.282 0.55,0.942 1.102,1.709 1.102,2.453 3.306,6.298 7.164,12.409 9.919,16.675 2.756,4.27 5.511,6.695 7.164,8.717 4.409,4.117 8.266,6.575 12.675,8.459 1.653,0.953 3.857,1.73 6.061,2.37 2.204,0.639 4.408,1.141 6.613,1.548 2.755,0.403 4.959,0.711 7.715,0.899 2.204,0.182 4.959,0.247 7.715,0.182 0.551,-0.028 1.653,0.027 2.204,0.132 1.103,0.111 1.654,0.281 2.204,0.485 0.551,0.204 0.551,0.446 1.103,0.732 0.551,0.282 0.551,0.601 1.101,0.976 0,0.369 0.552,0.793 0.552,1.3 0.551,0.508 0.551,1.097 0.551,1.825 0.551,0.721 0.551,1.586 0.551,2.44 v 2.42 c 0,0.722 -0.551,1.311 -0.551,1.829 0,0.518 -0.551,0.959 -0.551,1.351 0,0.391 -0.552,0.732 -0.552,1.036 -1.101,1.234 -2.204,1.636 -2.754,2.016 -0.551,0.155 -1.103,0.276 -1.654,0.364 -0.551,0.094 -1.102,0.143 -2.204,0.188 -1.102,0.044 -2.756,0.083 -3.857,0.131 -1.103,0.05 -1.654,0.111 -2.756,0.171 -0.551,0.061 -1.102,0.122 -1.653,0.194 -4.409,0.495 -8.817,1.334 -12.124,2.253 -3.306,0.921 -5.51,1.929 -7.714,2.992 -1.654,1.064 -3.307,2.194 -4.96,3.472 -1.102,0.562 -1.654,1.185 -2.204,1.841 -0.551,0.65 -1.102,1.345 -1.654,2.083 0,0.738 -0.551,1.526 -1.101,2.397 0,0.865 -0.552,1.807 -0.552,2.887 0,1.075 -0.551,2.288 0,3.775 0,1.483 0,3.241 0.552,4.971 0,1.096 0.55,2.304 1.653,3.406 0.551,0.143 0.551,0.276 1.102,0.396 0,0.121 0.55,0.226 0.55,0.326 0.552,0.099 1.103,0.187 1.654,0.225 0.551,0.045 1.653,0.033 2.756,0 1.101,-0.038 2.754,-0.093 4.408,-0.176 0.551,0.06 1.653,0.088 2.204,0.099 1.102,0.006 2.204,-0.011 3.857,-0.121 1.654,-0.115 3.858,-0.319 8.267,-0.931 4.408,-0.612 11.02,-1.62 18.736,-3.026 7.715,-1.405 15.981,-3.207 29.757,-7.059 13.777,-3.852 33.064,-9.764 51.801,-16.14 2.204,-0.673 3.857,-1.142 6.061,-1.367 1.654,-0.221 3.307,-0.204 5.511,0.027 1.653,0.226 3.306,0.656 4.959,1.285 1.653,0.407 2.756,0.875 3.307,1.229 1.102,0.358 1.102,0.594 1.653,0.815 1.653,1.581 1.653,2.843 2.204,4.469 -0.551,1.125 -0.551,2.237 -1.653,3.212 0,0.287 -0.551,0.601 -1.102,1.075 -0.552,0.474 -1.653,1.108 -2.756,1.747 -1.653,0.639 -2.754,1.289 -3.857,1.829 -1.102,0.535 -1.653,0.959 -2.755,1.34 -0.552,0.38 -1.102,0.716 -5.511,2.562 -3.857,1.841 -11.572,5.197 -19.287,8.586 -8.266,3.389 -16.532,6.817 -25.9,10.349 -8.818,3.532 -18.736,7.163 -29.758,10.977 C 95.885,67.34 83.21,71.325 73.291,73.876 63.372,76.427 56.208,77.541 49.596,78.251 42.982,78.957 37.472,79.26 33.063,79.32 28.655,79.387 26.45,79.21 24.246,78.929 22.042,78.648 19.838,78.262 18.735,77.816 17.083,77.37 15.98,76.857 14.878,76.284 13.776,75.711 12.674,75.072 12.123,74.344 11.021,73.617 10.47,72.801 9.367,71.837 8.816,70.878 7.715,69.776 7.163,68.42 6.612,67.07 5.51,65.467 4.959,63.323 4.408,61.179 3.857,58.501 2.755,55.459 2.204,52.417 1.652,49.018 1.102,45.11 1.102,41.203 0.551,36.789 0,29.069 Z m 33.614,83.365 c 5.511,-0.203 11.022,-0.656 17.083,-1.388 5.511,-0.739 11.573,-1.753 18.186,-3.197 6.612,-1.444 13.225,-3.311 22.043,-5.885 8.265,-2.573 18.184,-5.858 28.655,-9.578 9.919,-3.719 20.94,-7.869 33.064,-12.712 11.572,-4.85 24.247,-10.394 31.411,-13.645 7.163,-3.251 9.368,-4.205 10.469,-4.943 1.654,-0.738 2.756,-1.262 3.307,-1.741 0.551,-0.48 1.103,-0.91 2.204,-1.367 0.551,-0.469 1.103,-1.019 1.653,-1.631 1.654,-2.033 2.205,-4.397 2.205,-6.778 0,-0.783 -0.551,-1.538 -0.551,-2.232 -0.551,-0.694 -0.551,-1.328 -1.103,-1.896 -0.551,-0.562 -1.101,-1.058 -1.653,-1.488 0,-0.429 -1.102,-0.793 -1.652,-1.074 -2.756,-1.284 -5.511,-2.359 -7.716,-2.998 -2.204,-0.639 -3.858,-0.848 -5.51,-0.914 -1.653,-0.072 -2.756,0.005 -4.409,0.209 -1.102,0.204 -2.755,0.535 -3.858,0.992 -17.083,5.676 -33.615,10.988 -46.289,14.697 -12.674,3.714 -22.043,5.824 -29.757,7.522 -7.715,1.703 -14.879,2.986 -19.288,3.758 -4.408,0.778 -6.613,1.036 -8.817,1.217 -3.857,0.359 -7.715,0.453 -11.572,0.276 -1.102,0.061 -1.654,0.122 -2.755,0.182 -0.552,0.061 -1.653,0.116 -2.205,0.122 0,0.005 -0.551,-0.044 -0.551,-0.1 -1.102,-0.148 -1.653,-0.341 -2.204,-1.013 0,-0.453 -0.551,-0.894 -0.551,-1.395 0,-1.14 -0.552,-2.303 -0.552,-3.289 v -2.497 c 0,-0.711 0,-1.339 0.552,-1.912 0.551,-1.835 1.102,-3.494 3.306,-5.263 1.102,-1.129 2.756,-2.132 4.409,-3.042 1.653,-0.909 3.307,-1.73 5.511,-2.43 2.204,-0.7 4.959,-1.273 7.163,-1.648 1.102,-0.127 1.653,-0.242 2.756,-0.369 1.102,-0.127 2.204,-0.265 4.408,-0.452 1.653,-0.192 4.96,-0.435 6.613,-0.634 2.204,-0.203 3.307,-0.363 4.408,-0.562 1.103,-0.203 1.654,-0.441 2.204,-0.7 0.552,-0.258 1.103,-0.54 1.654,-0.843 0,-0.302 0.551,-0.633 1.102,-0.997 0,-0.369 0.551,-0.772 0.551,-1.234 0.551,-0.469 0.551,-0.997 1.103,-1.631 0,-0.639 0,-1.384 0.55,-2.353 V 3.125 -0.43 c 0,-1.036 -0.55,-1.829 -0.55,-2.502 0,-0.671 -0.552,-1.222 -0.552,-1.707 0,-0.48 -0.551,-0.899 -0.551,-1.279 -0.551,-0.374 -0.551,-0.711 -1.102,-1.02 0,-0.314 -0.551,-0.594 -1.102,-0.859 -0.551,-0.265 -0.551,-0.507 -1.103,-0.739 -0.55,-0.225 -1.653,-0.44 -2.204,-0.628 -1.101,-0.188 -2.204,-0.347 -2.755,-0.446 -3.306,-0.171 -6.613,-0.369 -9.368,-0.529 -2.204,-0.166 -4.409,-0.292 -5.51,-0.435 -1.103,-0.138 -2.205,-0.287 -3.307,-0.474 -2.204,-0.43 -4.96,-1.07 -7.164,-1.896 -2.204,-0.827 -4.408,-1.847 -6.612,-3.136 -2.205,-1.295 -3.858,-2.855 -6.614,-4.844 -2.204,-1.984 -4.408,-4.398 -7.715,-8.723 -2.754,-4.32 -6.612,-10.553 -9.919,-16.989 -0.55,-0.711 -0.55,-1.439 -1.102,-2.331 0,-0.893 -0.551,-1.956 -1.652,-4.061 -0.552,-2.099 -1.654,-5.247 -2.205,-8.404 -0.551,-1.361 -1.102,-2.667 -1.654,-3.775 -1.101,-1.113 -1.652,-2.034 -2.755,-2.772 -0.55,-0.743 -1.653,-1.306 -2.204,-1.708 -3.306,-1.273 -6.613,-0.937 -9.368,0.909 -1.102,0.656 -2.204,1.531 -3.307,2.425 -1.101,0.887 -1.653,1.791 -2.754,2.788 -0.552,1.003 -1.103,2.1 -1.654,3.351 -1.102,1.256 -1.653,2.662 -2.204,4.347 -0.552,1.693 -1.102,3.659 -1.102,5.649 -2.205,13.573 -3.858,27.256 -4.409,39.836 -1.102,12.581 -1.102,24.066 -0.551,34.85 0.551,10.779 1.653,20.864 2.755,27.361 0.551,6.502 1.654,9.412 2.205,11.825 0.55,2.413 1.653,4.331 2.204,5.974 1.102,1.642 1.653,3.009 2.756,4.215 0.55,1.207 1.653,2.249 2.754,3.185 1.103,0.937 2.205,1.764 3.858,2.502 1.102,0.744 2.756,1.4 4.409,1.973 2.204,0.579 4.408,1.069 7.163,1.4 2.756,0.336 6.063,0.512 9.368,0.462" /></g><g
           transform="translate(405.7063,342.2957)"
           id="g32"
           style="fill:#ffffff"><path
             id="path34"
             style="fill:#ffffff;fill-opacity:1;fill-rule:nonzero;stroke:none"
             d="m 0,0 c 0,9.208 -0.551,17.904 -0.551,23.921 -0.551,6.018 -1.101,9.363 -1.101,12.322 -0.552,2.96 -1.103,5.539 -1.654,8.018 -0.551,2.48 -1.102,4.855 -2.205,6.795 -0.551,1.94 -1.652,3.444 -2.204,4.728 -1.101,1.284 -2.204,2.342 -3.306,3.268 -1.102,0.926 -2.204,1.714 -3.306,2.397 -1.653,0.683 -3.307,1.267 -5.511,1.703 -1.653,0.435 -4.409,0.733 -8.266,0.865 -4.409,0.138 -10.47,0.121 -14.879,-0.072 -4.408,-0.198 -8.266,-0.562 -11.021,-0.997 -3.307,-0.435 -6.062,-0.937 -8.817,-1.565 -22.043,-5.18 -44.085,-11.396 -64.475,-18.229 -20.389,-6.834 -39.125,-14.289 -56.76,-22.258 -18.185,-7.968 -34.716,-16.449 -50.697,-25.746 -1.102,-0.672 -2.756,-1.4 -3.307,-2.011 -1.102,-0.612 -1.653,-1.108 -2.204,-1.543 -0.551,-0.441 -0.551,-0.821 -1.102,-1.168 -1.654,-2.138 -1.654,-3.935 0,-5.698 0.551,-0.336 0.551,-0.706 1.102,-1.13 0.551,-0.419 1.102,-0.898 2.204,-1.477 0.551,-0.579 1.653,-1.262 3.307,-1.895 15.429,-8.735 31.961,-16.874 47.391,-23.978 15.981,-7.097 30.86,-13.153 45.188,-18.416 14.878,-5.257 28.655,-9.72 41.881,-13.314 12.674,-3.593 24.247,-6.32 33.064,-7.924 8.816,-1.609 13.776,-2.099 18.736,-2.37 4.959,-0.269 9.368,-0.313 13.225,-0.099 3.858,0.215 7.164,0.695 9.368,1.422 2.755,0.733 4.96,1.708 7.164,2.888 1.653,1.179 3.858,2.563 4.96,4.237 1.653,1.67 3.306,3.637 4.408,6.122 1.102,2.486 2.205,5.495 3.306,9.523 1.103,4.028 2.205,9.087 2.756,14.764 1.102,5.675 2.204,11.974 2.204,19.981 C -0.551,-18.924 0,-9.203 0,0 m 3.307,-0.336 c 0.55,-9.44 0,-18.521 -0.551,-25.967 -0.551,-7.445 -1.103,-13.253 -1.653,-18.488 -0.551,-5.235 -1.654,-9.897 -2.755,-14.195 -1.103,-4.299 -2.205,-8.238 -3.307,-11.424 -1.653,-3.19 -2.756,-5.627 -4.409,-7.687 -1.653,-2.061 -3.306,-3.747 -5.51,-5.192 -1.654,-1.443 -3.858,-2.644 -6.062,-3.653 -2.205,-1.009 -4.96,-1.818 -8.817,-2.331 -3.306,-0.513 -7.164,-0.727 -11.573,-0.655 -4.408,0.066 -8.816,0.424 -14.327,1.013 -4.96,0.59 -11.022,1.422 -18.737,3.048 -7.714,1.625 -17.633,4.039 -29.757,7.555 -12.123,3.511 -27.002,8.117 -41.33,13.457 -14.879,5.34 -29.757,11.412 -44.636,18.378 -15.43,6.971 -31.411,14.834 -46.29,23.266 -2.204,0.981 -3.857,2.083 -4.959,2.899 -1.654,0.821 -1.654,1.35 -2.204,1.835 -1.654,2.094 -2.205,3.88 -2.205,5.857 0,1.543 0,3.12 1.103,4.619 0,0.468 0.55,0.936 0.55,1.443 0.552,0.501 1.102,1.053 2.205,1.891 1.102,0.842 2.755,1.972 13.225,7.356 9.92,5.379 28.656,15.005 47.392,23.586 19.287,8.579 39.126,16.119 59.515,22.714 20.389,6.602 41.881,12.261 62.822,16.852 7.714,1.62 15.429,2.453 23.144,2.469 3.858,0.017 7.715,-0.177 11.022,-0.496 2.755,-0.314 5.51,-0.766 7.714,-1.328 1.653,-0.562 3.307,-1.234 4.96,-2.001 1.653,-0.765 2.755,-1.62 3.857,-2.606 1.103,-0.991 2.204,-2.116 3.307,-3.471 0.551,-1.351 1.653,-2.927 2.755,-4.993 C -1.652,51.354 -0.551,48.808 0,46.322 0.552,43.837 1.103,41.407 1.653,38.48 2.205,35.55 2.756,32.122 2.756,25.509 3.307,18.896 3.307,9.099 3.307,-0.336" /></g><g
           transform="translate(137.3376,329.946)"
           id="g36"
           style="fill:#ffffff" /><g
           transform="translate(674.6262,329.825)"
           id="g40"
           style="fill:#ffffff" /><g
           transform="translate(609.6008,351.3274)"
           id="g44"
           style="fill:#ffffff"><path
             id="path46"
             style="fill:#ffffff;fill-opacity:1;fill-rule:nonzero;stroke:none"
             d="m 0,0 c -1.103,0.601 -1.653,0.904 -2.204,1.146 -0.551,0.248 -1.103,0.441 -7.715,3.45 -7.164,3.003 -20.39,8.828 -32.513,13.694 -11.573,4.866 -22.043,8.779 -31.962,12.228 -9.368,3.45 -18.185,6.437 -27.553,9.192 -9.368,2.755 -19.287,5.285 -27.002,6.822 -8.266,1.532 -13.777,2.083 -19.287,2.315 -4.96,0.231 -9.919,0.148 -13.226,-0.105 -3.307,-0.259 -5.511,-0.678 -7.164,-1.295 -1.653,-0.612 -2.755,-1.417 -3.857,-2.408 -1.103,-0.992 -2.204,-2.171 -3.307,-3.66 -1.102,-1.493 -1.653,-3.3 -2.204,-5.174 -0.551,-2.204 -1.103,-4.419 -1.653,-5.913 0,-1.493 0,-2.259 -0.551,-2.937 v -1.846 c -1.103,-6.811 -1.654,-13.655 -1.654,-21.376 -0.55,-7.72 -0.55,-16.322 -0.55,-27.686 0.55,-11.362 1.653,-25.481 2.204,-33.939 0.551,-8.459 1.101,-11.248 1.653,-13.502 0.551,-2.248 1.102,-3.956 1.653,-5.472 0.551,-1.515 1.102,-2.838 1.654,-4.116 0.551,-0.838 0.551,-1.653 1.101,-2.172 0.551,-0.92 1.103,-1.058 1.103,-1.35 1.101,-0.544 1.653,-0.639 2.755,-0.324 0.55,0.12 0.55,0.545 1.102,0.948 v 0.76 c 0,0.424 0.551,1.091 0.551,1.554 0,0.468 0,0.738 0.551,1.52 0,0.783 0.552,2.078 1.102,3.72 0.551,1.643 1.102,3.632 1.654,4.96 0.55,1.323 0.55,1.989 1.101,2.623 3.307,7.274 7.715,14.3 11.022,19.337 3.857,5.037 6.613,8.078 9.368,10.58 2.756,2.503 5.511,4.464 8.266,6.078 2.755,1.62 5.51,2.893 8.266,3.924 2.755,1.03 6.062,1.813 8.817,2.331 1.102,0.143 1.653,0.264 2.755,0.391 1.102,0.127 2.204,0.26 4.409,0.431 2.204,0.17 5.51,0.385 7.164,0.528 2.204,0.149 2.755,0.221 3.306,0.298 0.551,0.132 0.551,0.248 1.102,0.446 1.102,0.54 1.102,1.339 1.102,2.116 0,0.645 0,1.35 -0.55,1.985 -0.552,0.187 -0.552,0.269 -0.552,0.369 -0.551,0.054 -0.551,0.115 -1.102,0.182 -0.551,0.065 -1.102,0.138 -1.653,0.186 -4.408,0.513 -8.266,1.07 -11.022,1.477 -3.306,0.413 -4.408,0.673 -6.061,0.921 -1.103,0.242 -2.204,0.463 -3.307,0.711 -2.755,0.749 -6.061,1.851 -8.817,3.102 -2.204,1.245 -4.408,2.645 -6.062,4.177 -1.653,1.538 -2.754,3.213 -3.857,5.13 -1.102,1.918 -1.653,4.079 -2.204,6.685 -0.551,2.612 -1.103,5.665 -1.103,8.701 0,1.201 0.552,2.397 0.552,3.361 0,0.965 0,1.692 0.551,2.31 0,0.617 0.551,1.118 0.551,1.565 0,0.446 0.551,0.826 0.551,1.173 0.551,0.348 0.551,0.656 1.102,0.943 0.552,0.286 0.552,0.551 1.103,0.793 0.55,0.243 1.101,0.464 1.653,0.678 0.551,0.21 1.101,0.402 2.204,0.573 1.102,0.171 2.204,0.314 4.408,0.424 2.204,0.116 5.511,0.2 8.818,0.133 3.857,-0.071 7.714,-0.292 11.572,-0.749 4.408,-0.458 8.817,-1.153 14.328,-2.15 5.51,-1.003 11.572,-2.309 18.184,-3.945 7.165,-1.637 14.879,-3.604 26.452,-7.093 12.123,-3.488 27.553,-8.497 35.819,-11.186 8.817,-2.695 9.919,-3.07 11.572,-3.268 1.103,-0.198 1.654,-0.22 2.756,-0.171 1.652,0.105 3.306,0.48 4.408,1.174 1.102,0.347 1.654,0.777 2.755,1.267 C 2.755,-1.51 1.103,-0.606 0,0" /></g><g
           transform="translate(186.3826,329.8801)"
           id="g48"
           style="fill:#ffffff"><path
             id="path50"
             style="fill:#ffffff;fill-opacity:1;fill-rule:nonzero;stroke:none"
             d="m 0,0 c 0.551,-0.733 1.653,-1.455 2.755,-1.923 0.552,-0.474 1.102,-0.7 1.102,-0.882 0.552,-0.182 0.552,-0.32 1.102,-0.446 10.471,-5.622 20.94,-10.807 31.962,-15.562 11.022,-4.756 22.594,-9.083 34.166,-12.945 11.573,-3.863 23.145,-7.274 33.064,-9.793 9.92,-2.523 17.083,-4.16 23.145,-5.13 5.511,-0.965 8.817,-1.257 12.123,-1.422 3.307,-0.16 6.062,-0.193 8.267,-0.092 2.203,0.103 4.408,0.33 5.51,0.643 1.653,0.31 3.306,0.7 3.858,1.124 1.101,0.425 2.204,0.877 2.755,1.367 1.102,0.485 1.653,1.009 2.204,1.56 0.551,0.557 1.102,1.141 1.654,1.769 0.551,1.328 1.101,2.799 1.653,4.298 2.204,6.785 3.857,13.717 4.408,21.244 1.103,7.522 1.653,15.633 1.653,24.908 -0.55,9.269 -1.102,19.7 -2.755,30.011 -0.551,1.157 -0.551,2.292 -1.102,3.284 -0.551,0.992 -1.103,1.841 -1.653,2.579 -0.551,0.744 -1.103,1.383 -2.204,1.929 -1.103,0.551 -1.654,1.003 -2.756,1.344 -1.102,0.337 -2.756,0.562 -4.409,0.695 -1.653,0.132 -4.408,0.176 -6.613,0.132 -2.203,-0.049 -4.959,-0.182 -7.715,-0.43 -2.204,-0.248 -4.959,-0.606 -11.02,-1.785 -6.063,-1.18 -15.982,-3.174 -25.901,-5.847 C 94.783,37.957 83.211,34.607 69.434,29.576 55.106,24.544 38.575,17.838 28.104,13.457 17.083,9.076 12.674,7.031 9.919,5.56 6.612,4.094 4.959,3.202 3.857,2.38 2.205,1.554 1.102,0.799 0,0 Z m -17.083,-0.022 c 6.613,3.912 13.226,7.66 20.39,11.412 6.612,3.748 14.327,7.506 22.593,11.385 8.266,3.885 17.083,7.892 29.206,12.681 11.573,4.788 26.452,10.359 39.677,14.911 13.226,4.547 24.798,8.069 35.82,11.005 11.021,2.937 21.491,5.285 28.104,6.673 6.062,1.389 9.368,1.819 12.124,2.155 3.306,0.342 6.612,0.59 10.469,0.667 3.858,0.083 8.266,-0.006 11.573,-0.203 3.306,-0.205 4.959,-0.518 6.612,-0.988 1.653,-0.468 2.756,-1.091 3.858,-1.835 1.102,-0.743 2.204,-1.609 3.306,-2.623 0.552,-1.013 1.102,-2.182 1.654,-3.581 1.102,-1.4 1.102,-3.026 1.653,-4.69 0.551,-2.238 1.101,-4.48 1.101,-6.007 0.552,-1.521 0.552,-2.319 0.552,-3.003 V 46.13 c 1.101,-14.863 1.653,-29.775 1.653,-41.33 0,-11.561 -0.552,-19.767 -1.101,-27.08 -1.104,-7.306 -2.205,-13.721 -2.756,-18.378 -1.103,-4.651 -1.654,-7.549 -2.756,-9.936 -0.551,-2.385 -1.653,-4.254 -2.204,-5.841 -1.102,-1.586 -2.204,-2.893 -2.756,-4.028 -1.101,-1.136 -2.204,-2.1 -3.306,-2.948 -1.101,-0.849 -2.204,-1.581 -3.858,-2.21 -1.102,-0.633 -2.754,-1.162 -4.959,-1.581 -1.653,-0.425 -3.857,-0.734 -6.613,-0.844 -2.755,-0.11 -5.51,-0.027 -11.021,0.535 -5.511,0.556 -13.225,1.592 -22.043,3.118 -8.265,1.533 -17.634,3.555 -29.206,6.829 -11.573,3.273 -25.349,7.792 -38.575,12.376 -12.674,4.585 -24.247,9.248 -35.819,14.052 -11.021,4.806 -22.042,9.76 -32.512,14.924 -10.471,5.169 -20.39,10.542 -30.86,16.19 z" /></g><g
           transform="translate(196.302,275.5393)"
           id="g52"
           style="fill:#ffffff" /><g
           transform="translate(699.4241,329.6428)"
           id="g56"
           style="fill:#ffffff" /><g
           transform="translate(207.8743,330.0178)"
           id="g60"
           style="fill:#ffffff"><path
             id="path62"
             style="fill:#ffffff;fill-opacity:1;fill-rule:nonzero;stroke:none"
             d="m 0,0 c 0.551,-0.722 0.551,-1.433 1.653,-2.083 0,-0.215 0.551,-0.441 1.102,-0.761 0.551,-0.319 1.654,-0.733 2.756,-1.102 7.715,-3.708 15.981,-7.208 23.696,-10.376 8.265,-3.175 15.981,-6.018 23.144,-8.592 7.715,-2.573 15.43,-4.882 23.145,-7.048 7.715,-2.159 15.981,-4.183 22.043,-5.526 6.061,-1.345 10.47,-2.006 14.327,-2.486 3.858,-0.479 7.715,-0.777 9.92,-0.909 2.204,-0.133 3.306,-0.105 4.408,0 1.102,0.099 2.204,0.27 2.755,0.49 0.551,0.215 1.654,0.474 2.204,0.777 0.552,0.298 1.103,0.639 1.654,1.031 0,0.391 0.551,0.826 1.102,1.328 0.551,0.507 0.551,1.074 1.102,1.741 0.551,0.667 0.551,1.428 1.102,2.342 0.551,0.915 0.551,1.989 1.102,4.183 0.551,2.194 1.102,5.516 1.654,9.318 0,3.802 0.55,8.09 0.55,16.08 0.552,7.996 0,19.701 0,26.032 0,6.327 -0.55,7.28 -0.55,8.085 0,0.81 -0.552,1.471 -0.552,2.044 0,0.573 -0.551,1.058 -0.551,1.483 -0.551,0.429 -1.102,0.799 -1.102,1.135 -0.551,0.331 -1.102,0.623 -1.102,0.881 -0.551,0.254 -1.102,0.48 -1.653,0.662 -1.102,0.182 -1.653,0.325 -2.756,0.402 -0.55,0.077 -1.653,0.088 -4.959,-0.149 -2.756,-0.237 -7.164,-0.716 -12.124,-1.455 -5.51,-0.738 -11.021,-1.741 -20.94,-4.27 C 83.762,30.728 69.985,26.661 59.515,23.337 49.045,20.01 41.881,17.425 34.717,14.895 28.104,12.36 22.042,9.886 16.532,7.434 10.47,4.981 5.511,2.557 0,0 M -9.919,-0.38 C 0,4.342 9.919,8.762 19.838,12.928 c 10.471,4.172 20.39,8.084 31.411,11.771 11.022,3.686 22.594,7.141 31.962,9.754 9.368,2.617 17.083,4.386 23.144,5.571 5.511,1.184 9.92,1.785 13.777,2.199 3.858,0.413 7.164,0.639 9.368,0.727 2.205,0.093 3.307,0.05 4.409,-0.044 0.551,-0.099 1.102,-0.248 2.204,-0.441 0.551,-0.193 1.102,-0.419 1.653,-0.689 0.551,-0.264 0.551,-0.573 1.103,-0.92 0.55,-0.353 1.102,-0.75 1.102,-1.207 0.55,-0.463 0.55,-0.986 1.102,-1.614 0.551,-0.629 0.551,-1.362 1.102,-2.287 0,-0.921 0,-2.04 0.551,-3.158 0.551,-8.31 1.102,-16.659 1.102,-24.021 0,-7.368 0,-13.738 -0.551,-19.618 -0.551,-5.874 -1.653,-11.258 -2.204,-14.862 -0.552,-3.605 -1.102,-5.428 -1.654,-6.85 -0.55,-1.422 -0.55,-2.447 -1.102,-3.29 -0.551,-0.843 -1.102,-1.515 -1.653,-2.099 0,-0.579 -0.551,-1.07 -1.102,-1.504 -0.551,-0.431 -1.102,-0.811 -1.653,-1.147 -0.551,-0.336 -1.102,-0.634 -1.653,-0.892 -0.551,-0.265 -1.653,-0.492 -2.205,-0.673 -1.102,-0.188 -2.204,-0.336 -3.857,-0.391 -1.653,-0.055 -3.858,-0.022 -6.613,0.203 -2.755,0.227 -7.164,0.646 -11.572,1.284 -4.409,0.64 -9.368,1.505 -15.981,2.938 -6.062,1.438 -13.777,3.449 -23.145,6.249 -9.368,2.794 -19.838,6.376 -29.758,9.936 -9.918,3.554 -18.185,7.086 -26.451,10.668 C 4.959,-7.897 -2.755,-4.26 -9.919,-0.38 Z" /></g><g
           transform="translate(263.532,423.2083)"
           id="g64"
           style="fill:#ffffff" /><g
           transform="translate(305.9636,464.8694)"
           id="g68"
           style="fill:#ffffff" /><g
           transform="translate(217.2424,205.1956)"
           id="g72"
           style="fill:#ffffff" /><g
           transform="translate(315.8831,245.0657)"
           id="g76"
           style="fill:#ffffff" /><g
           transform="translate(437.1174,235.2346)"
           id="g80"
           style="fill:#ffffff" /><g
           transform="translate(374.8469,233.7795)"
           id="g84"
           style="fill:#ffffff" /><g
           transform="translate(529.1458,234.4133)"
           id="g88"
           style="fill:#ffffff" /><g
           transform="translate(537.9622,244.6467)"
           id="g92"
           style="fill:#ffffff" /><g
           transform="translate(335.1702,232.9641)"
           id="g96"
           style="fill:#ffffff" /><g
           transform="translate(323.0471,499.575)"
           id="g100"
           style="fill:#ffffff" /><g
           transform="translate(384.2151,506.491)"
           id="g104"
           style="fill:#ffffff" /><g
           transform="translate(423.3411,506.6726)"
           id="g108"
           style="fill:#ffffff" /><g
           transform="translate(423.3411,506.6726)"
           id="g112"
           style="fill:#ffffff" /><g
           transform="translate(544.5754,484.283)"
           id="g116"
           style="fill:#ffffff" /><g
           transform="translate(544.5754,484.283)"
           id="g120"
           style="fill:#ffffff" /><g
           transform="translate(531.9006,468.3074)"
           id="g124"
           style="fill:#ffffff"><path
             id="path126"
             style="fill:#ffffff;fill-opacity:1;fill-rule:nonzero;stroke:none"
             d="m 0,0 v -18.163 l -8.817,2.095 c -0.551,0.131 -1.102,0.66 -1.102,1.019 -0.552,0.959 0,1.708 1.102,2.804 z" /></g><g
           transform="translate(579.843,468.3074)"
           id="g128"
           style="fill:#ffffff" /></g></g></g></svg>
