<?xml version="1.0" standalone="no"?>
<!DOCTYPE svg PUBLIC "-//W3C//DTD SVG 20010904//EN"
 "http://www.w3.org/TR/2001/REC-SVG-20010904/DTD/svg10.dtd">
<svg version="1.0" xmlns="http://www.w3.org/2000/svg"
 width="408.000000pt" height="408.000000pt" viewBox="0 0 408.000000 408.000000"
 preserveAspectRatio="xMidYMid meet">
<metadata>
Created by potrace 1.14, written by Peter Selinger 2001-2017
</metadata>
<g transform="translate(0.000000,408.000000) scale(0.100000,-0.100000)"
fill="#000000" stroke="none">
<path d="M1625 2706 c-276 -59 -581 -152 -865 -262 -181 -71 -694 -322 -734
-359 -33 -30 -36 -95 -7 -124 28 -28 253 -145 466 -242 301 -137 590 -240 895
-318 189 -48 304 -64 442 -59 137 4 175 17 235 80 97 101 141 376 130 802 -9
326 -39 426 -144 476 -41 20 -67 24 -178 27 -108 2 -149 -1 -240 -21z m-9
-367 c17 -19 19 -41 22 -218 5 -304 -18 -413 -93 -433 -74 -19 -370 40 -628
126 -243 81 -497 190 -481 206 5 5 61 31 124 58 265 114 656 235 859 267 131
20 174 19 197 -6z"/>
<path d="M2473 2720 c-86 -18 -149 -73 -173 -153 -40 -132 -59 -466 -41 -697
16 -202 40 -359 62 -401 27 -54 83 -99 123 -99 53 0 81 30 110 121 43 133 134
275 213 334 65 47 122 64 248 75 123 9 141 20 151 86 7 52 1 84 -23 113 -14
16 -37 23 -113 31 -180 21 -255 58 -267 132 -10 63 5 72 115 65 182 -12 467
-80 812 -193 190 -62 245 -69 315 -40 59 25 75 44 75 88 0 29 -7 45 -26 63
-53 49 -595 273 -890 368 -291 94 -552 134 -691 107z"/>
</g>
</svg>
